<svg width="24" height="24" viewBox="0 0 24 24" fill="none" xmlns="http://www.w3.org/2000/svg">
<path d="M1 1H23V23H1V1Z" stroke="#081F2C" stroke-width="2"/>
<path d="M17.25 11.6256L11.9313 16.9763C11.2797 17.6317 10.3959 18 9.47445 18C8.55297 18 7.66923 17.6317 7.01764 16.9763C6.36606 16.3208 6 15.4317 6 14.5047C6 13.5777 6.36606 12.6886 7.01764 12.0332L12.3364 6.6825C12.7708 6.2455 13.3599 6 13.9743 6C14.5886 6 15.1777 6.2455 15.6121 6.6825C16.0465 7.1195 16.2906 7.71219 16.2906 8.3302C16.2906 8.94821 16.0465 9.5409 15.6121 9.9779L10.2876 15.3286C10.0704 15.5471 9.77582 15.6698 9.46866 15.6698C9.1615 15.6698 8.86692 15.5471 8.64973 15.3286C8.43253 15.1101 8.31051 14.8137 8.31051 14.5047C8.31051 14.1957 8.43253 13.8994 8.64973 13.6809L13.5633 8.74358" stroke="#081F2C" stroke-width="1.2" stroke-linecap="round" stroke-linejoin="round"/>
</svg>
