<svg width="11" height="10" viewBox="0 0 11 10" fill="none" xmlns="http://www.w3.org/2000/svg">
<path d="M10.3636 1.27273H8.36364V0H7.63636V1.27273H3.27273V0H2.54545V1.27273H0.545455C0.400843 1.2729 0.262202 1.33042 0.159946 1.43267C0.0576899 1.53493 0.000168419 1.67357 0 1.81818V9.45455C0.000168419 9.59916 0.0576899 9.7378 0.159946 9.84005C0.262202 9.94231 0.400843 9.99983 0.545455 10H10.3636C10.5082 9.99983 10.6469 9.94231 10.7491 9.84005C10.8514 9.7378 10.9089 9.59916 10.9091 9.45455V1.81818C10.9089 1.67357 10.8514 1.53493 10.7491 1.43267C10.6469 1.33042 10.5082 1.2729 10.3636 1.27273ZM10.1818 9.27273H0.727273V2H2.54545V2.90909H3.27273V2H7.63636V2.90909H8.36364V2H10.1818V9.27273Z" fill="#FF0000"/>
<path d="M2.18182 4.18182H2.9091V4.9091H2.18182V4.18182Z" fill="#FF0000"/>
<path d="M4.18182 4.18182H4.9091V4.9091H4.18182V4.18182Z" fill="#FF0000"/>
<path d="M6 4.18182H6.72727V4.9091H6V4.18182Z" fill="#FF0000"/>
<path d="M8 4.18182H8.72727V4.9091H8V4.18182Z" fill="#FF0000"/>
<path d="M2.18182 5.81818H2.9091V6.54545H2.18182V5.81818Z" fill="#FF0000"/>
<path d="M4.18182 5.81818H4.9091V6.54545H4.18182V5.81818Z" fill="#FF0000"/>
<path d="M6 5.81818H6.72727V6.54545H6V5.81818Z" fill="#FF0000"/>
<path d="M8 5.81818H8.72727V6.54545H8V5.81818Z" fill="#FF0000"/>
<path d="M2.18182 7.45454H2.9091V8.18182H2.18182V7.45454Z" fill="#FF0000"/>
<path d="M4.18182 7.45454H4.9091V8.18182H4.18182V7.45454Z" fill="#FF0000"/>
<path d="M6 7.45454H6.72727V8.18182H6V7.45454Z" fill="#FF0000"/>
<path d="M8 7.45454H8.72727V8.18182H8V7.45454Z" fill="#FF0000"/>
</svg>
