<svg width="16" height="16" viewBox="0 0 16 16" fill="none" xmlns="http://www.w3.org/2000/svg">
<path d="M6.56939 13C2.93096 13 0 10.1 0 6.5C0 2.9 2.93096 0 6.56939 0C10.2078 0 13.1388 2.9 13.1388 6.5C13.1388 10.1 10.2078 13 6.56939 13ZM6.56939 1C3.48683 1 1.01068 3.45 1.01068 6.5C1.01068 9.55 3.48683 12 6.56939 12C9.65195 12 12.1281 9.55 12.1281 6.5C12.1281 3.45 9.65195 1 6.56939 1Z" fill="#081F2C"/>
<path d="M11.4621 10.6335L16 15.1235L15.2855 15.8305L10.7475 11.3405L11.4621 10.6335Z" fill="#081F2C"/>
</svg>
