<svg width="63" height="46" viewBox="0 0 63 46" fill="none" xmlns="http://www.w3.org/2000/svg">
<mask id="path-1-inside-1" fill="white">
<path fill-rule="evenodd" clip-rule="evenodd" d="M19.5455 0.909088C17.3363 0.909088 15.5455 2.69995 15.5455 4.90909V5.81818H6C2.68629 5.81818 0 8.50447 0 11.8182V39.0909C0 42.4046 2.68629 45.0909 6 45.0909H57C60.3137 45.0909 63 42.4046 63 39.0909V11.8182C63 8.50447 60.3137 5.81818 57 5.81818H47.4545V4.90909C47.4545 2.69995 45.6637 0.909088 43.4545 0.909088H19.5455Z"/>
</mask>
<path d="M15.5455 5.81818V7.81818H17.5455V5.81818H15.5455ZM47.4545 5.81818H45.4545V7.81818H47.4545V5.81818ZM17.5455 4.90909C17.5455 3.80452 18.4409 2.90909 19.5455 2.90909V-1.09091C16.2317 -1.09091 13.5455 1.59538 13.5455 4.90909H17.5455ZM17.5455 5.81818V4.90909H13.5455V5.81818H17.5455ZM6 7.81818H15.5455V3.81818H6V7.81818ZM2 11.8182C2 9.60904 3.79086 7.81818 6 7.81818V3.81818C1.58172 3.81818 -2 7.39991 -2 11.8182H2ZM2 39.0909V11.8182H-2V39.0909H2ZM6 43.0909C3.79086 43.0909 2 41.3 2 39.0909H-2C-2 43.5092 1.58172 47.0909 6 47.0909V43.0909ZM57 43.0909H6V47.0909H57V43.0909ZM61 39.0909C61 41.3 59.2091 43.0909 57 43.0909V47.0909C61.4183 47.0909 65 43.5092 65 39.0909H61ZM61 11.8182V39.0909H65V11.8182H61ZM57 7.81818C59.2091 7.81818 61 9.60904 61 11.8182H65C65 7.3999 61.4183 3.81818 57 3.81818V7.81818ZM47.4545 7.81818H57V3.81818H47.4545V7.81818ZM45.4545 4.90909V5.81818H49.4545V4.90909H45.4545ZM43.4545 2.90909C44.5591 2.90909 45.4545 3.80452 45.4545 4.90909H49.4545C49.4545 1.59538 46.7683 -1.09091 43.4545 -1.09091V2.90909ZM19.5455 2.90909H43.4545V-1.09091H19.5455V2.90909Z" fill="#C4C4C4" mask="url(#path-1-inside-1)"/>
<path d="M44 25.9091C44 32.5867 38.5867 38 31.9091 38C25.2315 38 19.8182 32.5867 19.8182 25.9091C19.8182 19.2315 25.2315 13.8182 31.9091 13.8182C38.5867 13.8182 44 19.2315 44 25.9091Z" stroke="#C4C4C4" stroke-width="2"/>
<circle cx="51.5455" cy="14" r="2.45455" fill="#C4C4C4"/>
</svg>
