<?xml version="1.0" encoding="utf-8"?>
<!-- Generator: Adobe Illustrator 23.0.3, SVG Export Plug-In . SVG Version: 6.00 Build 0)  -->
<svg version="1.1" id="Layer_1" xmlns="http://www.w3.org/2000/svg" xmlns:xlink="http://www.w3.org/1999/xlink" x="0px" y="0px"
	 viewBox="0 0 2312 450" style="enable-background:new 0 0 2312 450;" xml:space="preserve">
<style type="text/css">
	.st0{fill:#E04B24;}
	.st1{fill-rule:evenodd;clip-rule:evenodd;fill:#089C9D;}
	.st2{fill-rule:evenodd;clip-rule:evenodd;fill:#079A9B;}
	.st3{fill-rule:evenodd;clip-rule:evenodd;fill:#099898;}
	.st4{fill-rule:evenodd;clip-rule:evenodd;fill:#0B9697;}
	.st5{fill-rule:evenodd;clip-rule:evenodd;fill:#0F9495;}
	.st6{fill-rule:evenodd;clip-rule:evenodd;fill:#109393;}
	.st7{fill-rule:evenodd;clip-rule:evenodd;fill:#149191;}
	.st8{fill-rule:evenodd;clip-rule:evenodd;fill:#168F8F;}
	.st9{fill-rule:evenodd;clip-rule:evenodd;fill:#148D8D;}
	.st10{fill-rule:evenodd;clip-rule:evenodd;fill:#128C8C;}
	.st11{fill-rule:evenodd;clip-rule:evenodd;fill:#118A89;}
	.st12{fill-rule:evenodd;clip-rule:evenodd;fill:#108888;}
	.st13{fill-rule:evenodd;clip-rule:evenodd;fill:#108686;}
	.st14{fill-rule:evenodd;clip-rule:evenodd;fill:#0E8584;}
	.st15{fill-rule:evenodd;clip-rule:evenodd;fill:#0E8383;}
	.st16{fill-rule:evenodd;clip-rule:evenodd;fill:#0E8181;}
	.st17{fill-rule:evenodd;clip-rule:evenodd;fill:#107F7F;}
	.st18{fill-rule:evenodd;clip-rule:evenodd;fill:#0F7E7E;}
	.st19{fill-rule:evenodd;clip-rule:evenodd;fill:#107C7B;}
	.st20{fill-rule:evenodd;clip-rule:evenodd;fill:#107A7A;}
	.st21{fill-rule:evenodd;clip-rule:evenodd;fill:#137878;}
	.st22{fill-rule:evenodd;clip-rule:evenodd;fill:#137777;}
	.st23{fill-rule:evenodd;clip-rule:evenodd;fill:#196DA8;}
	.st24{fill-rule:evenodd;clip-rule:evenodd;fill:#176DA7;}
	.st25{fill-rule:evenodd;clip-rule:evenodd;fill:#196BA5;}
	.st26{fill-rule:evenodd;clip-rule:evenodd;fill:#186BA4;}
	.st27{fill-rule:evenodd;clip-rule:evenodd;fill:#166AA2;}
	.st28{fill-rule:evenodd;clip-rule:evenodd;fill:#1869A2;}
	.st29{fill-rule:evenodd;clip-rule:evenodd;fill:#1968A0;}
	.st30{fill-rule:evenodd;clip-rule:evenodd;fill:#18679F;}
	.st31{fill-rule:evenodd;clip-rule:evenodd;fill:#1A679E;}
	.st32{fill-rule:evenodd;clip-rule:evenodd;fill:#1A659D;}
	.st33{fill-rule:evenodd;clip-rule:evenodd;fill:#1A659B;}
	.st34{fill-rule:evenodd;clip-rule:evenodd;fill:#1C649A;}
	.st35{fill-rule:evenodd;clip-rule:evenodd;fill:#1B6399;}
	.st36{fill-rule:evenodd;clip-rule:evenodd;fill:#1B6298;}
	.st37{fill-rule:evenodd;clip-rule:evenodd;fill:#1D6197;}
	.st38{fill-rule:evenodd;clip-rule:evenodd;fill:#1C6196;}
	.st39{fill-rule:evenodd;clip-rule:evenodd;fill:#1D6094;}
	.st40{fill-rule:evenodd;clip-rule:evenodd;fill:#1E5F93;}
	.st41{fill-rule:evenodd;clip-rule:evenodd;fill:#1D5E92;}
	.st42{fill-rule:evenodd;clip-rule:evenodd;fill:#1C5E91;}
	.st43{fill-rule:evenodd;clip-rule:evenodd;fill:#1E5D90;}
	.st44{fill-rule:evenodd;clip-rule:evenodd;fill:#1D5C8F;}
	.st45{fill-rule:evenodd;clip-rule:evenodd;fill:#BAB9DD;}
	.st46{fill-rule:evenodd;clip-rule:evenodd;fill:#BAB8DC;}
	.st47{fill-rule:evenodd;clip-rule:evenodd;fill:#B9B7DB;}
	.st48{fill-rule:evenodd;clip-rule:evenodd;fill:#B7B7DA;}
	.st49{fill-rule:evenodd;clip-rule:evenodd;fill:#B7B6DA;}
	.st50{fill-rule:evenodd;clip-rule:evenodd;fill:#B7B5D9;}
	.st51{fill-rule:evenodd;clip-rule:evenodd;fill:#B6B4D8;}
	.st52{fill-rule:evenodd;clip-rule:evenodd;fill:#B5B4D7;}
	.st53{fill-rule:evenodd;clip-rule:evenodd;fill:#B4B2D5;}
	.st54{fill-rule:evenodd;clip-rule:evenodd;fill:#B3B1D4;}
	.st55{fill-rule:evenodd;clip-rule:evenodd;fill:#B2B0D3;}
	.st56{fill-rule:evenodd;clip-rule:evenodd;fill:#B1B0D2;}
	.st57{fill-rule:evenodd;clip-rule:evenodd;fill:#B1AFD1;}
	.st58{fill-rule:evenodd;clip-rule:evenodd;fill:#AFADD0;}
	.st59{fill-rule:evenodd;clip-rule:evenodd;fill:#AEADCF;}
	.st60{fill-rule:evenodd;clip-rule:evenodd;fill:#AEACCE;}
	.st61{fill-rule:evenodd;clip-rule:evenodd;fill:#ADABCD;}
	.st62{fill-rule:evenodd;clip-rule:evenodd;fill:#ADAACC;}
	.st63{fill-rule:evenodd;clip-rule:evenodd;fill:#ACAACB;}
	.st64{fill-rule:evenodd;clip-rule:evenodd;fill:#ABA9CA;}
	.st65{fill-rule:evenodd;clip-rule:evenodd;fill:#AAA8C9;}
	.st66{fill-rule:evenodd;clip-rule:evenodd;fill:#C788BA;}
	.st67{fill-rule:evenodd;clip-rule:evenodd;fill:#C687B9;}
	.st68{fill-rule:evenodd;clip-rule:evenodd;fill:#C587B8;}
	.st69{fill-rule:evenodd;clip-rule:evenodd;fill:#C586B7;}
	.st70{fill-rule:evenodd;clip-rule:evenodd;fill:#C385B6;}
	.st71{fill-rule:evenodd;clip-rule:evenodd;fill:#C384B5;}
	.st72{fill-rule:evenodd;clip-rule:evenodd;fill:#C283B4;}
	.st73{fill-rule:evenodd;clip-rule:evenodd;fill:#C183B3;}
	.st74{fill-rule:evenodd;clip-rule:evenodd;fill:#C082B2;}
	.st75{fill-rule:evenodd;clip-rule:evenodd;fill:#BF81B1;}
	.st76{fill-rule:evenodd;clip-rule:evenodd;fill:#BE80B0;}
	.st77{fill-rule:evenodd;clip-rule:evenodd;fill:#BD7FAF;}
	.st78{fill-rule:evenodd;clip-rule:evenodd;fill:#BC7EAD;}
	.st79{fill-rule:evenodd;clip-rule:evenodd;fill:#BA7DAC;}
	.st80{fill-rule:evenodd;clip-rule:evenodd;fill:#B97CAA;}
	.st81{fill-rule:evenodd;clip-rule:evenodd;fill:#B77AA8;}
	.st82{fill-rule:evenodd;clip-rule:evenodd;fill:#B579A7;}
	.st83{fill-rule:evenodd;clip-rule:evenodd;fill:#B377A5;}
	.st84{fill-rule:evenodd;clip-rule:evenodd;fill:#B175A2;}
	.st85{fill-rule:evenodd;clip-rule:evenodd;fill:#AE73A0;}
	.st86{fill-rule:evenodd;clip-rule:evenodd;fill:#AB719D;}
	.st87{fill-rule:evenodd;clip-rule:evenodd;fill:#E94C93;}
	.st88{fill-rule:evenodd;clip-rule:evenodd;fill:#E84B92;}
	.st89{fill-rule:evenodd;clip-rule:evenodd;fill:#E74B92;}
	.st90{fill-rule:evenodd;clip-rule:evenodd;fill:#E64A90;}
	.st91{fill-rule:evenodd;clip-rule:evenodd;fill:#E54A90;}
	.st92{fill-rule:evenodd;clip-rule:evenodd;fill:#E4498E;}
	.st93{fill-rule:evenodd;clip-rule:evenodd;fill:#E2488D;}
	.st94{fill-rule:evenodd;clip-rule:evenodd;fill:#E1488D;}
	.st95{fill-rule:evenodd;clip-rule:evenodd;fill:#DF478B;}
	.st96{fill-rule:evenodd;clip-rule:evenodd;fill:#DD468A;}
	.st97{fill-rule:evenodd;clip-rule:evenodd;fill:#DC4488;}
	.st98{fill-rule:evenodd;clip-rule:evenodd;fill:#DA4487;}
	.st99{fill-rule:evenodd;clip-rule:evenodd;fill:#D84386;}
	.st100{fill-rule:evenodd;clip-rule:evenodd;fill:#D64284;}
	.st101{fill-rule:evenodd;clip-rule:evenodd;fill:#D44182;}
	.st102{fill-rule:evenodd;clip-rule:evenodd;fill:#D23F80;}
	.st103{fill-rule:evenodd;clip-rule:evenodd;fill:#CF3E7E;}
	.st104{fill-rule:evenodd;clip-rule:evenodd;fill:#CC3D7C;}
	.st105{fill-rule:evenodd;clip-rule:evenodd;fill:#C93C7A;}
	.st106{fill-rule:evenodd;clip-rule:evenodd;fill:#C53A77;}
	.st107{fill-rule:evenodd;clip-rule:evenodd;fill:#C13874;}
	.st108{fill-rule:evenodd;clip-rule:evenodd;fill:#BC3670;}
	.st109{fill-rule:evenodd;clip-rule:evenodd;fill:#F08467;}
	.st110{fill-rule:evenodd;clip-rule:evenodd;fill:#EE8165;}
	.st111{fill-rule:evenodd;clip-rule:evenodd;fill:#ED8064;}
	.st112{fill-rule:evenodd;clip-rule:evenodd;fill:#EB7E62;}
	.st113{fill-rule:evenodd;clip-rule:evenodd;fill:#E97C60;}
	.st114{fill-rule:evenodd;clip-rule:evenodd;fill:#E77A5F;}
	.st115{fill-rule:evenodd;clip-rule:evenodd;fill:#E5785C;}
	.st116{fill-rule:evenodd;clip-rule:evenodd;fill:#E4755B;}
	.st117{fill-rule:evenodd;clip-rule:evenodd;fill:#E17359;}
	.st118{fill-rule:evenodd;clip-rule:evenodd;fill:#DE6F56;}
	.st119{fill-rule:evenodd;clip-rule:evenodd;fill:#DC6D54;}
	.st120{fill-rule:evenodd;clip-rule:evenodd;fill:#D96A51;}
	.st121{fill-rule:evenodd;clip-rule:evenodd;fill:#D6664F;}
	.st122{fill-rule:evenodd;clip-rule:evenodd;fill:#D3634C;}
	.st123{fill-rule:evenodd;clip-rule:evenodd;fill:#D06049;}
	.st124{fill-rule:evenodd;clip-rule:evenodd;fill:#CC5C46;}
	.st125{fill-rule:evenodd;clip-rule:evenodd;fill:#C85843;}
	.st126{fill-rule:evenodd;clip-rule:evenodd;fill:#C35340;}
	.st127{fill-rule:evenodd;clip-rule:evenodd;fill:#BE4D3C;}
	.st128{fill-rule:evenodd;clip-rule:evenodd;fill:#B84738;}
	.st129{fill-rule:evenodd;clip-rule:evenodd;fill:#B04033;}
	.st130{fill-rule:evenodd;clip-rule:evenodd;fill:#A6382E;}
	.st131{fill-rule:evenodd;clip-rule:evenodd;fill:#FDC61E;}
	.st132{fill-rule:evenodd;clip-rule:evenodd;fill:#FAC41F;}
	.st133{fill-rule:evenodd;clip-rule:evenodd;fill:#F7C21F;}
	.st134{fill-rule:evenodd;clip-rule:evenodd;fill:#F5C020;}
	.st135{fill-rule:evenodd;clip-rule:evenodd;fill:#F2BD20;}
	.st136{fill-rule:evenodd;clip-rule:evenodd;fill:#F0BB21;}
	.st137{fill-rule:evenodd;clip-rule:evenodd;fill:#ECB921;}
	.st138{fill-rule:evenodd;clip-rule:evenodd;fill:#E9B723;}
	.st139{fill-rule:evenodd;clip-rule:evenodd;fill:#E6B423;}
	.st140{fill-rule:evenodd;clip-rule:evenodd;fill:#E2B123;}
	.st141{fill-rule:evenodd;clip-rule:evenodd;fill:#DFAF24;}
	.st142{fill-rule:evenodd;clip-rule:evenodd;fill:#DBAC24;}
	.st143{fill-rule:evenodd;clip-rule:evenodd;fill:#D7A825;}
	.st144{fill-rule:evenodd;clip-rule:evenodd;fill:#D3A526;}
	.st145{fill-rule:evenodd;clip-rule:evenodd;fill:#CEA127;}
	.st146{fill-rule:evenodd;clip-rule:evenodd;fill:#C99D27;}
	.st147{fill-rule:evenodd;clip-rule:evenodd;fill:#C49928;}
	.st148{fill-rule:evenodd;clip-rule:evenodd;fill:#BE9529;}
	.st149{fill-rule:evenodd;clip-rule:evenodd;fill:#B78F29;}
	.st150{fill-rule:evenodd;clip-rule:evenodd;fill:#B08A2A;}
	.st151{fill-rule:evenodd;clip-rule:evenodd;fill:#A7832A;}
	.st152{fill-rule:evenodd;clip-rule:evenodd;fill:#9E7D2B;}
	.st153{fill-rule:evenodd;clip-rule:evenodd;fill:#EDE314;}
	.st154{fill-rule:evenodd;clip-rule:evenodd;fill:#EBE115;}
	.st155{fill-rule:evenodd;clip-rule:evenodd;fill:#E8DF15;}
	.st156{fill-rule:evenodd;clip-rule:evenodd;fill:#E6DC17;}
	.st157{fill-rule:evenodd;clip-rule:evenodd;fill:#E3D916;}
	.st158{fill-rule:evenodd;clip-rule:evenodd;fill:#E1D718;}
	.st159{fill-rule:evenodd;clip-rule:evenodd;fill:#DDD41B;}
	.st160{fill-rule:evenodd;clip-rule:evenodd;fill:#DAD11B;}
	.st161{fill-rule:evenodd;clip-rule:evenodd;fill:#D7CE1E;}
	.st162{fill-rule:evenodd;clip-rule:evenodd;fill:#D4CB20;}
	.st163{fill-rule:evenodd;clip-rule:evenodd;fill:#D0C821;}
	.st164{fill-rule:evenodd;clip-rule:evenodd;fill:#CCC423;}
	.st165{fill-rule:evenodd;clip-rule:evenodd;fill:#C8C024;}
	.st166{fill-rule:evenodd;clip-rule:evenodd;fill:#C4BC26;}
	.st167{fill-rule:evenodd;clip-rule:evenodd;fill:#C0B827;}
	.st168{fill-rule:evenodd;clip-rule:evenodd;fill:#BBB328;}
	.st169{fill-rule:evenodd;clip-rule:evenodd;fill:#B5AF29;}
	.st170{fill-rule:evenodd;clip-rule:evenodd;fill:#B0A92A;}
	.st171{fill-rule:evenodd;clip-rule:evenodd;fill:#A9A32C;}
	.st172{fill-rule:evenodd;clip-rule:evenodd;fill:#A29D2D;}
	.st173{fill-rule:evenodd;clip-rule:evenodd;fill:#9A972E;}
	.st174{fill-rule:evenodd;clip-rule:evenodd;fill:#918E2F;}
	.st175{fill-rule:evenodd;clip-rule:evenodd;fill:#C7D426;}
	.st176{fill-rule:evenodd;clip-rule:evenodd;fill:#C5D228;}
	.st177{fill-rule:evenodd;clip-rule:evenodd;fill:#C2CF28;}
	.st178{fill-rule:evenodd;clip-rule:evenodd;fill:#C0CD29;}
	.st179{fill-rule:evenodd;clip-rule:evenodd;fill:#BECB2A;}
	.st180{fill-rule:evenodd;clip-rule:evenodd;fill:#BBC82A;}
	.st181{fill-rule:evenodd;clip-rule:evenodd;fill:#B8C52C;}
	.st182{fill-rule:evenodd;clip-rule:evenodd;fill:#B6C32D;}
	.st183{fill-rule:evenodd;clip-rule:evenodd;fill:#B3C02C;}
	.st184{fill-rule:evenodd;clip-rule:evenodd;fill:#B0BD2E;}
	.st185{fill-rule:evenodd;clip-rule:evenodd;fill:#ACBA2E;}
	.st186{fill-rule:evenodd;clip-rule:evenodd;fill:#AAB72E;}
	.st187{fill-rule:evenodd;clip-rule:evenodd;fill:#A6B32F;}
	.st188{fill-rule:evenodd;clip-rule:evenodd;fill:#A2AF30;}
	.st189{fill-rule:evenodd;clip-rule:evenodd;fill:#9EAC30;}
	.st190{fill-rule:evenodd;clip-rule:evenodd;fill:#9AA831;}
	.st191{fill-rule:evenodd;clip-rule:evenodd;fill:#95A331;}
	.st192{fill-rule:evenodd;clip-rule:evenodd;fill:#909F32;}
	.st193{fill-rule:evenodd;clip-rule:evenodd;fill:#8B9932;}
	.st194{fill-rule:evenodd;clip-rule:evenodd;fill:#859433;}
	.st195{fill-rule:evenodd;clip-rule:evenodd;fill:#7E8D33;}
	.st196{fill-rule:evenodd;clip-rule:evenodd;fill:#768533;}
	.st197{fill-rule:evenodd;clip-rule:evenodd;fill:#95C12E;}
	.st198{fill-rule:evenodd;clip-rule:evenodd;fill:#94C02F;}
	.st199{fill-rule:evenodd;clip-rule:evenodd;fill:#91BD2F;}
	.st200{fill-rule:evenodd;clip-rule:evenodd;fill:#8FBB30;}
	.st201{fill-rule:evenodd;clip-rule:evenodd;fill:#8DB931;}
	.st202{fill-rule:evenodd;clip-rule:evenodd;fill:#8BB631;}
	.st203{fill-rule:evenodd;clip-rule:evenodd;fill:#89B431;}
	.st204{fill-rule:evenodd;clip-rule:evenodd;fill:#87B231;}
	.st205{fill-rule:evenodd;clip-rule:evenodd;fill:#84AF32;}
	.st206{fill-rule:evenodd;clip-rule:evenodd;fill:#82AD33;}
	.st207{fill-rule:evenodd;clip-rule:evenodd;fill:#7FAA33;}
	.st208{fill-rule:evenodd;clip-rule:evenodd;fill:#7CA734;}
	.st209{fill-rule:evenodd;clip-rule:evenodd;fill:#79A335;}
	.st210{fill-rule:evenodd;clip-rule:evenodd;fill:#76A035;}
	.st211{fill-rule:evenodd;clip-rule:evenodd;fill:#739D36;}
	.st212{fill-rule:evenodd;clip-rule:evenodd;fill:#6F9935;}
	.st213{fill-rule:evenodd;clip-rule:evenodd;fill:#6C9636;}
	.st214{fill-rule:evenodd;clip-rule:evenodd;fill:#679137;}
	.st215{fill-rule:evenodd;clip-rule:evenodd;fill:#638C37;}
	.st216{fill-rule:evenodd;clip-rule:evenodd;fill:#5F8837;}
	.st217{fill-rule:evenodd;clip-rule:evenodd;fill:#5A8237;}
	.st218{fill-rule:evenodd;clip-rule:evenodd;fill:#547C37;}
	.st219{fill-rule:evenodd;clip-rule:evenodd;fill:#136D41;}
	.st220{fill-rule:evenodd;clip-rule:evenodd;fill:#F0851C;}
	.st221{fill-rule:evenodd;clip-rule:evenodd;fill:#EE811E;}
	.st222{fill-rule:evenodd;clip-rule:evenodd;fill:#EB7C20;}
	.st223{fill-rule:evenodd;clip-rule:evenodd;fill:#E87723;}
	.st224{fill-rule:evenodd;clip-rule:evenodd;fill:#E57225;}
	.st225{fill-rule:evenodd;clip-rule:evenodd;fill:#E36D26;}
	.st226{fill-rule:evenodd;clip-rule:evenodd;fill:#E06928;}
	.st227{fill-rule:evenodd;clip-rule:evenodd;fill:#DD6429;}
	.st228{fill-rule:evenodd;clip-rule:evenodd;fill:#DA5F2A;}
	.st229{fill-rule:evenodd;clip-rule:evenodd;fill:#D85B2B;}
	.st230{fill-rule:evenodd;clip-rule:evenodd;fill:#D5562B;}
	.st231{fill-rule:evenodd;clip-rule:evenodd;fill:#D3512C;}
	.st232{fill-rule:evenodd;clip-rule:evenodd;fill:#D14D2C;}
	.st233{fill-rule:evenodd;clip-rule:evenodd;fill:#CE492D;}
	.st234{fill-rule:evenodd;clip-rule:evenodd;fill:#CC442D;}
	.st235{fill-rule:evenodd;clip-rule:evenodd;fill:#C93F2E;}
	.st236{fill-rule:evenodd;clip-rule:evenodd;fill:#C73C2E;}
	.st237{fill-rule:evenodd;clip-rule:evenodd;fill:#C5382E;}
	.st238{fill-rule:evenodd;clip-rule:evenodd;fill:#C3342E;}
	.st239{fill-rule:evenodd;clip-rule:evenodd;fill:#C0302E;}
	.st240{fill-rule:evenodd;clip-rule:evenodd;fill:#BE2C2F;}
	.st241{fill-rule:evenodd;clip-rule:evenodd;fill:#BC282F;}
</style>
<g id="Layer_x0020_1">
	<path class="st0" d="M1407.6,346.6c-9.4-33.4-18.8-66.8-28.2-100.2c-4-14.9-3.4-24.4-11.5-24.4c-8.1,0-9.2,10.1-12.6,25
		c-9,33.2-18,66.4-27,99.7C1354.7,346.6,1381.2,346.6,1407.6,346.6z M134.1,211.2c7.4,0,12.7,2.4,12.7,11.9c0,75.5,0,151.1,0,226.6
		c17.2,0,34.5,0,51.7,0c0-68.2,0-136.4,0-204.6c0-25.6-3.4-53-44.9-53c-36.2,0-72.5,0-108.7,0c-41.4,0-44.9,27.4-44.9,53
		c0,68.2,0,136.4,0,204.6c17.2,0,34.5,0,51.8,0c0-75.5,0-151.1,0-226.6c0-9.5,5.3-11.9,12.7-11.9
		C87.7,211.2,110.9,211.2,134.1,211.2z M1175.3,449.8c0-79.5,0-159,0-238.6c-24.3,0-48.6,0-72.9,0c0-6.4,0-12.7,0-19.1
		c66.2,0,132.3,0,198.5,0c0,6.4,0,12.7,0,19.1c-24.3,0-48.6,0-72.9,0c0,79.5,0,159,0,238.6C1210.4,449.8,1192.9,449.8,1175.3,449.8z
		 M1076.5,211.2c-32.8,0-65.5,0-98.3,0c-7.5,0-12.7,2.4-12.7,11.9c0,27,0,54.1,0,81.1c30.5,0,61,0,91.5,0c0,8.4,0,16.7,0,25.1
		c-30.5,0-61,0-91.5,0c0,27.8,0,55.6,0,83.5c0,11.9,6.9,17.9,19.6,17.9c32.8,0,65.6,0,98.4,0c0,6.4,0,12.7,0,19.1
		c-43.3,0-86.7,0-130,0c-24.7,0-39.7-11.9-39.7-45.3c0-53.1,0-106.2,0-159.3c0-25.6,3.4-53,44.9-53c39.3,0,78.6,0,117.9,0
		C1076.5,198.5,1076.5,204.9,1076.5,211.2L1076.5,211.2z M686.8,449.8c0-85.9,0-171.8,0-257.6c17.1,0,34.2,0,51.3,0
		c0,37.4,0,74.7,0,112.1c31.5,0,63.1,0,94.6,0c0-37.4,0-74.7,0-112.1c17.5,0,35.1,0,52.6,0c0,85.9,0,171.8,0,257.6
		c-17.5,0-35.1,0-52.6,0c0-40.1,0-80.3,0-120.5c-31.5,0-63.1,0-94.6,0c0,40.1,0,80.3,0,120.5C721,449.8,703.9,449.8,686.8,449.8z
		 M582.5,346.6c-9.4-33.4-18.8-66.8-28.3-100.2c-4-14.9-3.4-24.4-11.5-24.4c-8.1,0-9.2,10.1-12.7,25c-9,33.2-18,66.4-27.1,99.7
		C529.6,346.6,556.1,346.6,582.5,346.6z M451.4,449.8c19.4-73.2,38.7-146.3,58.1-219.5c7.4-26.2,18.4-44.7,47.7-44.7
		c34.5,0,40.3,25.6,49.4,56.7c19.8,69.2,39.5,138.4,59.3,207.5c-18.2,0-36.4,0-54.7,0c-7.3-26.1-14.6-52.1-21.9-78.2
		c-31.1,0-62.1,0-93.2,0c-6.9,26.1-13.8,52.1-20.7,78.2C467.5,449.8,459.4,449.8,451.4,449.8z M379.3,449.8
		c-19-67.8-38-135.6-57-203.4c-4-14.9-3.4-24.4-11.4-24.4c-8.1,0-9.3,10.1-12.7,25c-18.2,67.6-36.4,135.2-54.6,202.8
		c-8,0-16.1,0-24.1,0c19.4-73.2,38.7-146.3,58.1-219.5c7.4-26.2,18.4-44.7,47.7-44.7c34.5,0,40.3,25.6,49.4,56.7
		c19.8,69.2,39.6,138.4,59.4,207.5C415.8,449.8,397.6,449.8,379.3,449.8L379.3,449.8z M1276.5,449.8
		c19.4-73.2,38.7-146.3,58.1-219.5c7.5-26.2,18.4-44.7,47.8-44.7c34.5,0,40.3,25.6,49.4,56.7c19.8,69.2,39.5,138.4,59.3,207.5
		c-18.2,0-36.4,0-54.7,0c-7.3-26.1-14.6-52.1-21.9-78.2c-31.1,0-62.1,0-93.2,0c-6.9,26.1-13.8,52.1-20.7,78.2
		C1292.6,449.8,1284.5,449.8,1276.5,449.8L1276.5,449.8z"/>
	<g id="_1567907504">
		<g>
			<path class="st1" d="M2056.9,381.6l-9.6-24.4c14.2,1.5,23.7,5.6,25.7,12.7c1.1,4-1,8.6-5.9,13.7
				C2063.6,382.8,2060.2,382.2,2056.9,381.6L2056.9,381.6z"/>
			<g>
				<path class="st2" d="M2059.6,359.6l8.9,22.5c-0.4,0.5-0.9,1-1.4,1.6c-7.4-1.7-14.9-2.8-22.4-3.5l-9.3-23.5
					C2045,356.7,2053.2,357.7,2059.6,359.6L2059.6,359.6z"/>
				<path class="st3" d="M2047,357.2l9.6,24.4c-8-1.3-16-2-23.9-2.1l-8.9-22.6C2032.4,356.5,2040.3,356.6,2047,357.2L2047,357.2z"/>
				<path class="st4" d="M2035.2,356.6l9.3,23.5c-7.8-0.7-15.6-0.8-23.2-0.4l-8.7-21.9C2020.7,357,2028.3,356.6,2035.2,356.6
					L2035.2,356.6z"/>
				<path class="st5" d="M2023.7,356.9l8.9,22.6c-7.7-0.1-15.2,0.2-22.7,1l-8.5-21.4C2009.3,358,2016.7,357.3,2023.7,356.9
					L2023.7,356.9z M2023.5,414.8l-5.9-15c5.4,1.1,8.8,3.1,9.7,6.1C2028,408.4,2026.6,411.5,2023.5,414.8L2023.5,414.8z"/>
				<path class="st6" d="M2012.4,357.8l8.7,21.9c-7.5,0.3-14.9,1.1-22.2,2.3l-8.4-21.1C1998.1,359.5,2005.4,358.5,2012.4,357.8
					L2012.4,357.8z M2014.7,421.8l-9.1-23c12.2,0,20.3,2.3,21.7,7.1C2028.5,410.2,2023.7,415.9,2014.7,421.8L2014.7,421.8z"/>
				<path class="st7" d="M2001.3,359.1l8.5,21.4c-7.4,0.8-14.7,1.9-21.7,3.4l-8.4-21.1C1987.1,361.3,1994.4,360.1,2001.3,359.1z
					 M2017.4,399.7l6,15.2c-3.8,4-10.1,8.2-18.2,12.3l-11-27.8C2003.6,398.4,2011.6,398.6,2017.4,399.7L2017.4,399.7z"/>
				<path class="st8" d="M1990.4,360.8l8.4,21.1c-7.3,1.2-14.4,2.7-21.2,4.6l-8.4-21.3C1976.3,363.5,1983.4,362,1990.4,360.8
					L1990.4,360.8z M2005.4,398.8l9.2,23.1c-5.2,3.3-11.7,6.7-19.1,9.9l-12.2-30.9C1991.4,399.5,1999,398.8,2005.4,398.8
					L2005.4,398.8z"/>
				<path class="st9" d="M1979.6,362.9l8.4,21.1c-7.2,1.5-14.2,3.4-20.8,5.6l-8.6-21.8C1965.6,365.9,1972.7,364.3,1979.6,362.9z
					 M1994.1,399.4l11,27.9c-5.7,2.9-12.4,5.8-19.7,8.5l-13-32.8C1980.1,401.2,1987.4,400,1994.1,399.4z"/>
				<path class="st10" d="M1968.9,365.2l8.4,21.3c-7.1,1.9-14,4.2-20.4,6.6l-8.9-22.5c1.2-0.4,2.5-0.7,3.7-1.1
					C1957.5,368,1963.2,366.6,1968.9,365.2L1968.9,365.2z M1983,400.9l12.3,31c-6.1,2.6-12.9,5.1-20.1,7.4l-13.3-33.7
					C1969.2,403.5,1976.3,402,1983,400.9z"/>
				<path class="st11" d="M1958.4,367.9l8.6,21.8c-7.1,2.3-13.8,4.9-20,7.7l-9.3-23.4c4.7-1.5,9.4-2.9,14.1-4.3
					C1954,369,1956.2,368.4,1958.4,367.9L1958.4,367.9z M1972.2,402.9l13,32.8c-5.2,1.9-10.7,3.7-16.4,5.3c-1.4,0.4-2.7,0.8-4.1,1.1
					l-13.3-33.6c2.5-0.8,5-1.6,7.6-2.3C1963.5,405,1968,403.9,1972.2,402.9z"/>
				<path class="st12" d="M1947.9,370.8l8.9,22.5c-7,2.7-13.6,5.6-19.6,8.8l-9.8-24.6C1934.2,375,1941,372.8,1947.9,370.8
					L1947.9,370.8z M1961.7,405.5l13.3,33.7c-2,0.6-4.1,1.2-6.2,1.8c-4.9,1.4-9.8,2.6-14.7,3.6l-12.9-32.6c5.6-2.1,11.6-4,17.8-5.8
					C1959.9,406,1960.8,405.8,1961.7,405.5L1961.7,405.5z"/>
				<path class="st13" d="M1937.5,374l9.3,23.4c-7,3.1-13.4,6.5-19.1,9.9l-10.4-26.3C1923.9,378.5,1930.7,376.2,1937.5,374z
					 M1951.3,408.6l13.3,33.6c-7.1,1.8-14.2,3.3-21.3,4.5l-12.1-30.6C1937.3,413.4,1944,410.9,1951.3,408.6L1951.3,408.6z"/>
				<path class="st14" d="M1927.3,377.4l9.8,24.7c-7,3.6-13.3,7.5-18.6,11.3l-11.2-28.3C1913.7,382.4,1920.5,379.8,1927.3,377.4z
					 M1941,412.1l12.9,32.6c-7.2,1.5-14.5,2.7-21.7,3.5l-10.9-27.4C1927.1,417.8,1933.7,414.8,1941,412.1z"/>
				<path class="st15" d="M1917.2,381.1l10.4,26.3c-7.2,4.3-13.2,8.8-17.8,13.2l-12.4-31.3C1903.7,386.5,1910.3,383.7,1917.2,381.1z
					 M1931,416.2l12.1,30.6c-7.4,1.2-14.8,2-22.1,2.4l-9-22.8C1917,422.9,1923.5,419.5,1931,416.2L1931,416.2z"/>
				<path class="st16" d="M1907.1,385.1l11.2,28.4c-7.8,5.7-13.5,11.3-16.5,16.4l-14.2-36C1893.7,390.9,1900.3,387.9,1907.1,385.1
					L1907.1,385.1z M1921.3,420.8l10.8,27.4c-7.5,0.8-15,1.3-22.5,1.3l-6.3-15.8C1906.7,429.7,1913,425.2,1921.3,420.8L1921.3,420.8
					z"/>
				<path class="st17" d="M1897.2,389.4l12.4,31.3c-10.8,10.2-14,19.6-5.8,24.4c-1.6-1-2.7-2.2-3.2-3.6c-1.2-4.2,3.1-9.6,11.3-15.1
					l9,22.7c-7.7,0.5-15.4,0.5-23,0.2l-19.9-50.4C1883.9,395.7,1890.4,392.5,1897.2,389.4L1897.2,389.4z"/>
				<path class="st18" d="M1887.4,394l14.3,36.1c-3.8,6.3-3.5,11.7,2.1,15c-1.6-1-2.7-2.2-3.2-3.6c-0.6-2.3,0.3-4.8,2.6-7.6
					l6.2,15.7c-7.9,0.1-15.7-0.3-23.5-1.1l-17.5-44.1C1874.1,400.9,1880.5,397.4,1887.4,394z"/>
				<path class="st19" d="M1877.8,399l19.9,50.3c-8.1-0.4-16.1-1.2-24-2.4l-14.4-36.4C1864.6,406.7,1870.8,402.8,1877.8,399
					L1877.8,399z"/>
				<path class="st20" d="M1868.4,404.5l17.4,44c-8.3-0.8-16.5-2.1-24.6-3.8l-10.6-26.8C1855,413.5,1861.1,409,1868.4,404.5z"/>
				<path class="st21" d="M1859.2,410.7l14.3,36.3c-6.2-1-12.4-2.2-18.5-3.7c-2.8-0.7-5.2-1.7-7.1-2.8l-4.7-12
					C1845.1,423,1850.8,416.9,1859.2,410.7L1859.2,410.7z"/>
			</g>
			<path class="st22" d="M1850.5,418l10.5,26.6c-2-0.4-4-0.9-6-1.3c-6.8-1.8-11.1-4.7-12.2-8.6
				C1841.5,429.8,1844.4,424.1,1850.5,418L1850.5,418z"/>
		</g>
		<g>
			<path class="st23" d="M1989.7,434.2l-9.6-32.7c25.3-4.6,44.9-3.1,47,4.5C2029.3,413.5,2013.6,424.9,1989.7,434.2z"/>
			<g>
				<path class="st24" d="M2020.9,400.8l3.7,12.7c-5.8,7.1-20.2,15.3-39,22.2l-9.8-33.4C1995.5,398.3,2012.2,397.8,2020.9,400.8z"/>
				<path class="st25" d="M2014,399.3l5.6,19c-8,6.4-21.6,13.2-38.2,18.9l-9.9-34C1988.6,399.4,2003.8,398.1,2014,399.3z"/>
				<path class="st26" d="M2007.5,398.9l6.8,23.2c-9,5.8-21.9,11.6-37,16.5l-10-34.4C1982.6,400.4,1996.8,398.7,2007.5,398.9z"/>
				<path class="st27" d="M2001,399l7.7,26.4c-9.4,5.2-21.8,10.3-35.8,14.5l-10.1-34.6C1977,401.6,1990.3,399.5,2001,399z"/>
				<path class="st28" d="M1994.7,399.4l8.4,28.9c-9.5,4.7-21.4,9.2-34.4,12.9l-10.1-34.7l0.3-0.1
					C1971.9,402.7,1984.2,400.4,1994.7,399.4L1994.7,399.4z"/>
				<path class="st29" d="M1988.5,400.1l9,30.8c-8.4,3.7-18.2,7.2-28.7,10.2c-1.4,0.4-2.8,0.8-4.3,1.2l-10.1-34.6
					c1.5-0.5,3-0.9,4.6-1.3C1969.4,403.4,1979.5,401.3,1988.5,400.1z"/>
				<path class="st30" d="M1982.3,401.1l9.4,32.3c-7,2.8-14.8,5.5-23,7.8c-2.9,0.8-5.7,1.6-8.5,2.2l-10-34.4
					c2.9-0.9,5.8-1.8,8.8-2.7C1967.1,404.1,1975,402.3,1982.3,401.1L1982.3,401.1z"/>
				<path class="st31" d="M1976.2,402.2l9.8,33.4c-5.4,2-11.2,3.9-17.2,5.6c-4.4,1.2-8.7,2.3-12.9,3.2l-9.9-34c4.2-1.4,8.5-2.8,13-4
					C1964.9,404.7,1970.7,403.3,1976.2,402.2L1976.2,402.2z"/>
				<path class="st32" d="M1970.2,403.5l10,34.2c-3.7,1.2-7.5,2.4-11.4,3.5c-5.9,1.7-11.7,3-17.2,4.2l-9.8-33.4
					c5.4-2,11.1-3.8,17.1-5.5C1962.8,405.3,1966.5,404.3,1970.2,403.5L1970.2,403.5z"/>
				<path class="st33" d="M1964.1,405l10.1,34.6c-1.8,0.6-3.6,1.1-5.5,1.6c-7.5,2.1-14.7,3.8-21.6,5l-9.5-32.7
					c6.5-2.6,13.7-5,21.3-7.1C1960.7,405.9,1962.4,405.4,1964.1,405L1964.1,405z"/>
				<path class="st34" d="M1958.2,406.6l10.1,34.7c-8.9,2.5-17.5,4.4-25.5,5.6l-9.3-31.7C1941,412,1949.3,409.1,1958.2,406.6
					L1958.2,406.6z"/>
				<path class="st35" d="M1952.2,408.4l10.1,34.5c-8.4,2.1-16.5,3.7-23.9,4.6l-8.9-30.6C1936.3,413.9,1943.9,411,1952.2,408.4
					L1952.2,408.4z"/>
				<path class="st36" d="M1946.4,410.3l9.9,34c-8,1.8-15.5,3-22.3,3.7l-8.5-29.2C1931.6,415.8,1938.7,412.9,1946.4,410.3z"/>
				<path class="st37" d="M1940.5,412.4l9.7,33.2c-7.5,1.4-14.5,2.4-20.8,2.8l-8.1-27.6C1927,417.9,1933.4,415,1940.5,412.4z"/>
				<path class="st38" d="M1934.7,414.6l9.4,32c-7,1.1-13.4,1.8-19.2,2l-7.5-25.6C1922.4,420.1,1928.2,417.3,1934.7,414.6
					L1934.7,414.6z"/>
				<path class="st39" d="M1929,417.1l8.9,30.5c-6.5,0.8-12.4,1.2-17.6,1.1l-6.8-23.3C1917.9,422.6,1923.1,419.8,1929,417.1
					L1929,417.1z"/>
				<path class="st40" d="M1923.4,419.8l8.3,28.4c-6,0.5-11.4,0.6-16,0.2l-6-20.5C1913.4,425.3,1918,422.5,1923.4,419.8
					L1923.4,419.8z"/>
				<path class="st41" d="M1917.8,422.8l7.5,25.8c-5.6,0.2-10.5-0.1-14.4-0.8L1906,431C1908.9,428.3,1912.9,425.6,1917.8,422.8
					L1917.8,422.8z"/>
				<path class="st42" d="M1912.3,426.1l6.6,22.5c-5.4-0.2-9.8-0.9-13-2.2l-3.4-11.6C1904.5,432.1,1907.9,429.1,1912.3,426.1
					L1912.3,426.1z"/>
				<path class="st43" d="M1907,430.1l5.2,18c-6.6-1-10.8-3.1-11.7-6.4C1899.6,438.3,1902.1,434.3,1907,430.1L1907,430.1z"/>
			</g>
			<path class="st44" d="M1902.1,435.3l3.2,10.8c-2.6-1.1-4.2-2.7-4.7-4.6C1900,439.7,1900.6,437.6,1902.1,435.3L1902.1,435.3z"/>
		</g>
		<g>
			<path class="st45" d="M1851,15l-2.7-6c19.4-5.5,39-8.7,56.7-8.8C1889.4,2.7,1870.4,7.9,1851,15L1851,15z"/>
			<g>
				<path class="st46" d="M1897,0.5l0.5,1.1c-15.4,3.1-33.4,8.4-51.5,15.3l-2.9-6.3C1861.2,4.9,1879.8,1.4,1897,0.5z"/>
				<path class="st47" d="M1889,1.1l1,2.1c-15.1,3.6-32.1,8.9-49,15.6l-3-6.6C1854.9,6.5,1872.5,2.7,1889,1.1z"/>
				<path class="st48" d="M1881.1,2l1.4,3.1c-14.7,3.9-30.8,9.3-46.6,15.7l-3.1-6.9C1848.7,8.3,1865.3,4.2,1881.1,2z"/>
				<path class="st49" d="M1873.4,3.2l1.8,3.9c-14.2,4.1-29.4,9.5-44.2,15.7l-3.2-7.1C1842.7,10.1,1858.2,5.8,1873.4,3.2z"/>
				<path class="st50" d="M1865.8,4.6l2.1,4.6c-13.7,4.3-28,9.6-41.9,15.7l-3.3-7.2C1836.7,12.1,1851.3,7.6,1865.8,4.6L1865.8,4.6z"
					/>
				<path class="st51" d="M1858.3,6.3l2.4,5.3c-13.1,4.4-26.6,9.6-39.6,15.5l-3.4-7.4C1830.8,14.2,1844.6,9.6,1858.3,6.3z"/>
				<path class="st52" d="M1850.9,8.2l2.7,5.8c-12.5,4.4-25.2,9.6-37.3,15.3l-3.4-7.4C1825,16.4,1837.9,11.8,1850.9,8.2z"/>
				<path class="st53" d="M1843.5,10.4l2.9,6.3c-11.8,4.4-23.8,9.5-35.1,15l-3.4-7.5C1819.3,18.8,1831.3,14.1,1843.5,10.4z"/>
				<path class="st54" d="M1836.3,12.7l3.1,6.7c-11.2,4.4-22.3,9.4-32.8,14.7l-3.4-7.5C1813.6,21.2,1824.9,16.6,1836.3,12.7
					L1836.3,12.7z"/>
				<path class="st55" d="M1829.2,15.2l3.2,7c-10.5,4.4-20.9,9.2-30.7,14.3l-3.4-7.4C1808.1,23.9,1818.5,19.2,1829.2,15.2z"/>
				<path class="st55" d="M1822.2,17.9l3.3,7.2c-9.9,4.3-19.5,9-28.5,13.9l-3.4-7.3C1802.6,26.6,1812.2,22,1822.2,17.9L1822.2,17.9z
					"/>
				<path class="st56" d="M1815.2,20.9l3.4,7.4c-9.2,4.2-18.1,8.7-26.3,13.4l-3.3-7.2C1797.2,29.5,1806,24.9,1815.2,20.9z"/>
				<path class="st57" d="M1808.4,24l3.4,7.5c-8.5,4.1-16.6,8.4-24.2,12.9l-3.2-7C1791.9,32.5,1799.9,28.1,1808.4,24z"/>
				<path class="st58" d="M1801.6,27.4l3.4,7.4c-7.8,4-15.2,8.1-22,12.4l-3.1-6.8C1786.6,35.8,1793.9,31.4,1801.6,27.4L1801.6,27.4z
					"/>
				<path class="st59" d="M1795,31l3.4,7.4c-7.1,3.8-13.8,7.8-19.9,11.9l-3-6.5C1781.5,39.1,1788,34.9,1795,31z"/>
				<path class="st60" d="M1788.5,34.8l3.3,7.2c-6.4,3.7-12.4,7.4-17.8,11.3l-2.8-6.2C1776.4,42.7,1782.3,38.6,1788.5,34.8z"/>
				<path class="st61" d="M1782.1,38.9l3.2,6.9c-5.7,3.5-11,7-15.8,10.6l-2.7-5.9C1771.5,46.5,1776.6,42.6,1782.1,38.9z"/>
				<path class="st62" d="M1775.8,43.3l3,6.6c-5,3.3-9.6,6.6-13.7,10l-2.5-5.4C1766.6,50.6,1771.1,46.9,1775.8,43.3L1775.8,43.3z"/>
				<path class="st63" d="M1769.7,48.1l2.8,6.1c-4.3,3.1-8.2,6.2-11.6,9.3l-2.3-5C1762,54.9,1765.7,51.5,1769.7,48.1z"/>
				<path class="st64" d="M1763.8,53.3l2.6,5.6c-3.2,2.6-6.2,5.2-8.8,7.7c-0.4-0.1-0.8-0.2-1.2-0.2l-1.6-3.5
					C1757.4,59.6,1760.5,56.4,1763.8,53.3z"/>
			</g>
			<path class="st65" d="M1758.1,59l2.3,4.9c-1,0.9-1.9,1.8-2.9,2.7c-5.2-1.1-8.1,1.6-4.6-1.6C1754.5,63,1756.3,61,1758.1,59z"/>
		</g>
		<g>
			<path class="st66" d="M1960.7,5.1l0.1,0.3c-30.5,1.2-60.8,7.1-89.4,15.8l-1.9-8.4C1908.6,3.6,1942.6,0.9,1960.7,5.1L1960.7,5.1z"
				/>
			<g>
				<path class="st66" d="M1932.5,3.3l1,4.4c-29.3,3.7-58,11.3-84.6,21.1l-2.2-9.9c1-0.3,2.1-0.6,3.1-0.9
					C1881,9.2,1910.2,4.2,1932.5,3.3L1932.5,3.3z"/>
				<path class="st67" d="M1909.5,5.4l1.3,6c-28.1,5.5-55.3,14.2-80.2,24.6l-2.5-11c7-2.6,14.3-4.9,21.6-7
					C1871.1,12,1891.6,7.8,1909.5,5.4z"/>
				<path class="st68" d="M1889.7,8.6l1.6,7.1c-26.9,6.7-52.7,16.2-76,27.1l-2.6-11.6c11.7-5,24.2-9.5,37.1-13.1
					C1863.6,14.1,1877.1,10.9,1889.7,8.6z"/>
				<path class="st69" d="M1872.4,12.2l1.8,8.2c-25.8,7.7-50.2,17.7-72,28.7l-2.7-12c15.3-7.3,32.4-14.1,50.3-19.1
					C1857.5,15.8,1865,13.9,1872.4,12.2z"/>
				<path class="st70" d="M1856.9,16.1l2.1,9.2c-24.6,8.4-47.7,18.7-68.2,29.8l-2.7-12.2c17.9-9.4,39.3-18.5,61.8-24.9
					C1852.2,17.3,1854.5,16.7,1856.9,16.1L1856.9,16.1z"/>
				<path class="st71" d="M1842.8,20.1l2.3,10.2c-23.5,8.9-45.3,19.4-64.4,30.5l-2.8-12.3C1795.8,38.1,1818.5,27.6,1842.8,20.1z"/>
				<path class="st72" d="M1830,24.3l2.4,10.9c-22.3,9.2-42.9,19.9-60.7,30.9l-2.7-12.2C1785.1,43.7,1806.4,32.8,1830,24.3z"/>
				<path class="st73" d="M1818.2,28.8l2.6,11.4c-21.2,9.5-40.5,20.1-57.1,30.9l-2.7-12C1775.3,49.2,1795.4,38.1,1818.2,28.8z"/>
				<path class="st74" d="M1807.3,33.5l2.7,11.8c-20,9.6-38.1,20.2-53.5,30.7l-2.6-11.6C1766.1,54.8,1785,43.4,1807.3,33.5z"/>
				<path class="st75" d="M1797.1,38.2l2.7,12.1c-18.9,9.7-35.8,20.1-50,30.3l-2.5-10.9C1757.4,60.7,1775.2,49,1797.1,38.2z"/>
				<path class="st76" d="M1787.6,43.1l2.7,12.2c-17.7,9.6-33.4,19.8-46.5,29.7l-2.2-9.7c0.9-0.9,1.7-1.8,2.6-2.7
					C1752.1,64.7,1767.7,53.7,1787.6,43.1z"/>
				<path class="st77" d="M1778.7,48l2.8,12.3c-16.5,9.5-31.1,19.4-43.1,29l-1.9-8.5c2.5-2.6,5.1-5.3,7.8-8.1
					C1750.9,65.9,1763,57,1778.7,48L1778.7,48z"/>
				<path class="st78" d="M1770.2,53.1l2.7,12.3c-15.4,9.4-28.8,19-39.6,28.1l-1.7-7.4c3.8-4.3,8-8.7,12.6-13.4
					C1749.7,67.2,1758.7,60.3,1770.2,53.1L1770.2,53.1z"/>
				<path class="st79" d="M1762.2,58.3l2.7,12.1c-14.2,9.1-26.4,18.4-36.2,27.2l-1.4-6.3c5-6,10.5-11.9,17-18.5
					C1748.3,68.5,1754.5,63.6,1762.2,58.3L1762.2,58.3z"/>
				<path class="st80" d="M1754.7,63.7l2.6,11.7c-13,8.9-24.1,17.7-32.9,26.1l-1.2-5.3c6-7.8,12.8-15.2,21-23.5
					C1746.9,70,1750.4,67,1754.7,63.7z"/>
				<path class="st81" d="M1747.6,69.6l2.5,10.9c-11.8,8.5-21.8,17-29.5,24.8l-0.9-4.1c6.9-9.7,14.7-18.4,24.7-28.5
					C1745.3,71.7,1746.3,70.6,1747.6,69.6z"/>
				<path class="st82" d="M1740.9,76.1l2.1,9.5c-10.7,8.2-19.5,16.2-26.2,23.5l-0.7-3C1723.1,95.5,1730.9,86.4,1740.9,76.1z"/>
				<path class="st83" d="M1734.6,82.8l1.8,8.1c-9.5,7.8-17.2,15.3-22.9,22.1l-0.4-1.9C1719.4,100.7,1726.1,92,1734.6,82.8
					L1734.6,82.8z"/>
				<path class="st84" d="M1728.5,89.6l1.5,6.7c-8.3,7.3-15,14.3-19.6,20.7l-0.2-0.9C1715.8,106,1721.6,97.8,1728.5,89.6
					L1728.5,89.6z"/>
				<path class="st85" d="M1722.8,96.8l1.2,5.1c-7.2,6.9-12.7,13.4-16.3,19.2l0-0.2C1712.4,111.7,1717.3,104,1722.8,96.8
					L1722.8,96.8z"/>
			</g>
			<path class="st86" d="M1717.4,104.3l0.8,3.4c-5.9,6.3-10.2,12.2-12.8,17.4c0,0,0,0,0.1,0.1
				C1709.3,117.3,1713.2,110.5,1717.4,104.3z"/>
		</g>
		<g>
			<path class="st87" d="M1915.4,48.2l-0.2-13.6c53.3-10,96.4-10.3,113.5-0.5C1992.1,32.8,1953.2,38.4,1915.4,48.2z"/>
			<g>
				<path class="st88" d="M1994.8,27.1l0.1,7.7c-36.6,2.6-74.3,10.8-110.3,22.4l-0.2-15.9C1927.8,30.8,1967,26,1994.8,27.1
					L1994.8,27.1z"/>
				<path class="st89" d="M1965.1,27.8l0.1,10.2c-35.8,5.3-71.9,15.3-105.8,27.9l-0.2-18.1C1898.3,36.8,1935.2,30.1,1965.1,27.8z"/>
				<path class="st90" d="M1939.4,30.6l0.1,11.9c-34.8,7.2-69.4,18.4-101.3,31.7l-0.2-20.2c6.6-2.1,13.3-4.1,20.1-6
					C1887.1,39.9,1914.9,34.1,1939.4,30.6z"/>
				<path class="st91" d="M1916.9,34.3l0.2,13.5c-33.7,8.6-66.7,20.7-96.8,34.4L1820,60c12.2-4.2,25-8.2,38.2-12
					C1878.6,42.3,1898.4,37.7,1916.9,34.3z"/>
				<path class="st92" d="M1896.6,38.4l0.2,15c-32.6,9.7-64,22.3-92.3,36.2l-0.3-23.9c16.7-6.3,34.9-12.3,54-17.7
					C1871.3,44.4,1884.2,41.1,1896.6,38.4z"/>
				<path class="st93" d="M1878.2,42.7l0.2,16.4c-31.4,10.5-61.3,23.5-87.8,37.5l-0.3-25.5c20.3-8.3,43.3-16.2,67.9-23.1
					C1864.9,46.2,1871.6,44.4,1878.2,42.7L1878.2,42.7z"/>
				<path class="st94" d="M1861.2,47.2l0.2,17.9c-30.1,11.1-58.5,24.4-83.3,38.3l-0.3-27c23.2-10.2,50.6-20,80.4-28.4
					C1858.2,48,1861.2,47.2,1861.2,47.2z"/>
				<path class="st95" d="M1845.6,51.7l0.2,19.5c-28.8,11.6-55.6,24.9-78.8,38.7l-0.3-28.3C1788.9,71,1815.9,60.7,1845.6,51.7z"/>
				<path class="st96" d="M1831,56.3l0.2,20.9c-27.5,11.9-52.8,25.2-74.3,38.8l-0.3-29.5C1777.1,76,1802.5,65.6,1831,56.3L1831,56.3
					z"/>
				<path class="st97" d="M1817.3,61l0.3,22.4c-26.1,12.1-49.9,25.3-69.9,38.7l-0.4-30.6C1766.1,81,1790.1,70.5,1817.3,61z"/>
				<path class="st98" d="M1804.3,65.7l0.3,23.9c-24.7,12.2-47,25.3-65.4,38.3l-0.4-31.5C1756,86,1778.4,75.4,1804.3,65.7
					L1804.3,65.7z"/>
				<path class="st99" d="M1792.1,70.4l0.3,25.3c-23.3,12.2-44,25.1-60.9,37.7l-0.4-32.3C1746.4,91,1767.4,80.4,1792.1,70.4
					L1792.1,70.4z"/>
				<path class="st100" d="M1780.4,75.3l0.3,26.7c-21.9,12.1-41.1,24.8-56.4,37l-0.4-32.8C1737.4,96.2,1756.9,85.5,1780.4,75.3
					L1780.4,75.3z"/>
				<path class="st101" d="M1769.3,80.3l0.3,28c-20.4,12-38.1,24.3-52,36.2l-0.4-33C1728.8,101.5,1746.8,90.8,1769.3,80.3
					L1769.3,80.3z"/>
				<path class="st102" d="M1758.7,85.4l0.3,29.3c-19,11.8-35.2,23.9-47.5,35.2l-0.4-32.6C1720.3,107.4,1736.9,96.4,1758.7,85.4
					L1758.7,85.4z"/>
				<path class="st103" d="M1748.5,90.8l0.4,30.5c-17.6,11.6-32.2,23.3-43.1,34.2l-0.4-30.2l0,0l0,0V125
					C1711.1,114.8,1726.4,102.8,1748.5,90.8z"/>
				<path class="st104" d="M1738.6,96.4l0.4,31.6c-16.2,11.4-29.3,22.8-38.6,33.2l-0.3-24.4c1.7-3.9,3.4-7.8,5.3-11.6
					c0,0,0-0.1-0.1-0.1C1710.1,116.5,1721.8,106.6,1738.6,96.4z"/>
				<path class="st105" d="M1729.2,102.4l0.4,32.4c-14.8,11.3-26.5,22.3-34.1,32.4l-0.2-17.8c2.9-8.3,6.3-16.4,10.2-24.2
					c0,0,0-0.1-0.1-0.1C1709.2,118.2,1717.4,110.5,1729.2,102.4L1729.2,102.4z"/>
				<path class="st106" d="M1720.1,109.2l0.4,33c-13.7,11.3-23.9,22.2-29.7,31.9l-0.1-10.1c3.7-13.4,8.7-26.3,14.8-38.7
					c0,0,0-0.1-0.1-0.1C1708.1,120.2,1713.1,114.8,1720.1,109.2z"/>
				<path class="st107" d="M1711.2,117.3l0.4,32.6c-13.4,12.4-22.2,23.9-25.2,33.7l0-1.6c3.8-19.8,10.2-38.8,19-56.7
					c0,0,0-0.1-0.1-0.1C1706.7,122.6,1708.7,120,1711.2,117.3L1711.2,117.3z"/>
			</g>
			<path class="st108" d="M1702.7,130.9l0.3,27.4c-10.1,10.7-16.2,20.7-17.5,29c0,0,0-0.1-0.1-0.1
				C1688.7,167.7,1694.6,148.7,1702.7,130.9z"/>
		</g>
		<g>
			<path class="st109" d="M1985.8,76.7l-0.2-12.7c25.1-2.3,46.6-2,62.9,0.6C2027.8,67.9,2006.8,72,1985.8,76.7z"/>
			<g>
				<path class="st110" d="M1936.4,89.3l-0.3-18.4c46.5-8.6,86.2-10.5,112.4-6.4C2011.4,70.6,1973.6,78.8,1936.4,89.3L1936.4,89.3z"
					/>
				<path class="st111" d="M2035.9,63.1l0,3.6c-45.5,8-91.8,19.2-136.5,33.9l-0.3-21.8C1954,65.5,2002.6,60.6,2035.9,63.1z"/>
				<path class="st112" d="M2000.8,62.9l0.2,10.5c-44.1,9.3-88.4,21.7-130.7,37.4l-0.4-24.3l2.8-0.8
					C1920.7,72.2,1965.2,64.8,2000.8,62.9L2000.8,62.9z"/>
				<path class="st113" d="M1970.9,65.6l0.2,14.6c-42.6,10.3-84.8,23.6-124.9,40l-0.4-26.4c8.8-2.8,17.7-5.5,26.9-8.1
					C1908,75.8,1941.5,69.2,1970.9,65.6z"/>
				<path class="st114" d="M1944.7,69.4l0.3,17.5c-40.9,11.2-81.2,25.1-119,42l-0.4-28.2c15-5.3,30.8-10.4,47.2-14.9
					C1897.9,78.7,1922.2,73.2,1944.7,69.4L1944.7,69.4z"/>
				<path class="st115" d="M1921.4,73.8l0.3,19.8c-39.2,11.8-77.5,26.2-113.3,43.4l-0.4-29.8c20.1-7.7,41.9-15,64.6-21.4
					C1889.4,81,1905.8,77.1,1921.4,73.8L1921.4,73.8z"/>
				<path class="st116" d="M1900.4,78.5l0.3,21.7c-34.2,11.2-67.4,24.5-98.6,39.8c-3,1.4-5.9,2.9-8.9,4.4l-0.5-31.2
					c24.2-10,51.2-19.4,79.9-27.5C1882.1,83.1,1891.3,80.7,1900.4,78.5z"/>
				<path class="st117" d="M1881.1,83.4l0.4,23.3c-27.4,9.7-54,20.8-79.4,33.3c-7.7,3.7-15.1,7.5-22.3,11.3l-0.5-32.4
					c27.4-12.1,59.2-23.6,93.4-33.2C1875.5,85,1878.3,84.2,1881.1,83.4L1881.1,83.4z"/>
				<path class="st118" d="M1863.3,88.5l0.4,24.9c-21.2,8.1-41.8,17-61.6,26.7c-12,5.8-23.5,11.8-34.3,17.9l-0.5-33.5
					C1794.8,111.5,1827.7,99,1863.3,88.5z"/>
				<path class="st119" d="M1846.8,93.5l0.4,26.3c-15.4,6.3-30.4,13-45,20.2c-16.1,7.8-31.3,15.9-45.1,24.1l-0.5-34.5
					C1782,116.9,1812.9,104.4,1846.8,93.5z"/>
				<path class="st120" d="M1831.2,98.7l0.4,27.7c-10,4.4-19.9,8.9-29.5,13.7c-20,9.7-38.6,19.8-54.8,30.1l-0.5-35.5
					C1770.2,122.2,1799.1,109.8,1831.2,98.7L1831.2,98.7z"/>
				<path class="st121" d="M1816.6,103.9l0.4,29c-5,2.3-10,4.7-14.9,7.1c-23.8,11.5-45.5,23.7-63.6,35.9l-0.6-36.4
					C1759.4,127.4,1786.3,115.1,1816.6,103.9z"/>
				<path class="st122" d="M1802.7,109.2l0.5,30.3l-1.1,0.5c-27.4,13.2-52.1,27.4-71.7,41.5l-0.6-37.3
					C1749.3,132.5,1774.3,120.4,1802.7,109.2z"/>
				<path class="st123" d="M1789.6,114.5l0.5,31.5c-26.1,13.2-49.1,27.2-67.1,41l-0.6-38.1C1740,137.5,1763,125.7,1789.6,114.5z"/>
				<path class="st124" d="M1777,120l0.5,32.6c-22.1,11.9-41.6,24.2-57,36.4c-1.4,1.1-2.9,2.1-4.3,3.2l-0.6-38.7
					C1731.3,142.5,1752.3,131,1777,120L1777,120z"/>
				<path class="st125" d="M1765,125.5l0.5,33.7c-17.2,9.8-32.4,19.8-45,29.7c-3.6,2.6-7.1,5.3-10.5,8l-0.6-38.9
					C1723.1,147.6,1742.1,136.4,1765,125.5L1765,125.5z"/>
				<path class="st126" d="M1753.4,131.2l0.5,34.8c-12.5,7.6-23.8,15.3-33.5,23c-5.6,4.1-11,8.3-16.3,12.6l-0.6-38.8
					C1715.4,152.7,1732.5,141.9,1753.4,131.2L1753.4,131.2z"/>
				<path class="st127" d="M1742.3,137.1l0.5,35.9c-8.1,5.3-15.6,10.7-22.4,16c-7.5,5.5-14.7,11.1-21.7,17l-0.6-38.3
					C1708.1,158,1723.2,147.6,1742.3,137.1L1742.3,137.1z"/>
				<path class="st128" d="M1731.6,143.2l0.6,37.1c-4.1,2.9-8,5.8-11.7,8.7c-9.3,6.8-18.2,13.9-26.6,21.2l-0.6-37.3
					C1701.1,163.7,1714.3,153.6,1731.6,143.2L1731.6,143.2z"/>
				<path class="st129" d="M1721.3,149.7l0.6,38.2l-1.3,1c-10.9,8.1-21.4,16.4-31.3,25.3l-0.5-35.1
					C1694,170.3,1705.3,160.2,1721.3,149.7L1721.3,149.7z"/>
			</g>
			<path class="st130" d="M1711.2,156.7l0.6,38.8c-9,6.9-17.6,14.1-25.7,21.6c-0.4,0.3-0.7,0.7-1.1,1l-0.4-24.6
				c0.3-2.1,0.6-4.2,1-6.4C1687,178.4,1696.2,167.9,1711.2,156.7L1711.2,156.7z"/>
		</g>
		<g>
			<path class="st131" d="M1978.6,175l-6.9-23.3c83.4-15.1,146.5-11.7,153,11.3C2091.4,155.3,2037.2,161.2,1978.6,175z"/>
			<g>
				<path class="st132" d="M2077.9,143.2l4.9,16.5c-39.5,0.9-90.2,10.5-141.5,25.1l-7.4-25.1
					C1991.6,146.3,2042.9,140.7,2077.9,143.2z"/>
				<path class="st133" d="M2038.7,143.3l5.7,19.4c-40.6,5.2-87.7,16.5-133.6,31.2l-7.8-26.6
					C1953.6,153.7,2000.9,145.6,2038.7,143.3z"/>
				<path class="st134" d="M2005.6,146.5l6.3,21.4c-40.4,7.6-84.6,19.8-126.6,34.6l-8.2-27.8c5.1-1.5,10.3-3.1,15.6-4.5
					C1933.1,158.8,1971.8,150.9,2005.6,146.5L2005.6,146.5z"/>
				<path class="st135" d="M1976.6,150.9l6.8,23c-39.5,9.1-81.2,21.9-120,36.6l-8.5-28.8c12.2-4,24.8-7.9,37.8-11.5
					C1922,161.9,1950.3,155.5,1976.6,150.9L1976.6,150.9z"/>
				<path class="st136" d="M1950.7,155.9l7.2,24.3c-38.4,10.1-77.7,23.2-113.6,37.9l-8.8-29.7c18-6.4,37.1-12.6,57.1-18.2
					C1912.6,164.5,1932.1,159.8,1950.7,155.9L1950.7,155.9z"/>
				<path class="st137" d="M1927.4,161.1l7.5,25.5c-37,10.8-74.1,24.1-107.4,38.6l-9-30.5c22.7-8.8,47.7-17.1,74.1-24.5
					C1904.4,166.8,1916,163.8,1927.4,161.1L1927.4,161.1z"/>
				<path class="st138" d="M1906,166.5l7.8,26.5c-35.5,11.3-70.4,24.6-101.3,38.9l-9.2-31.2c26.6-11,56.8-21.4,89.2-30.5
					C1897.1,168.9,1901.6,167.7,1906,166.5L1906,166.5z"/>
				<path class="st139" d="M1886.3,172l8.1,27.4c-34,11.6-66.7,24.9-95.2,38.9l-9.4-31.8C1817.9,194.1,1850.7,182.3,1886.3,172
					L1886.3,172z"/>
				<path class="st140" d="M1868,177.5l8.3,28.2c-32.3,11.7-63,24.9-89.3,38.6l-9.5-32.4C1803.6,199.8,1834.3,188,1868,177.5z"/>
				<path class="st141" d="M1851,183l8.6,29c-30.6,11.8-59.3,24.8-83.4,38.2l-9.7-32.9C1790.5,205.4,1819.1,193.7,1851,183L1851,183
					z"/>
				<path class="st142" d="M1834.9,188.6l8.8,29.7c-28.9,11.8-55.5,24.6-77.5,37.6l-9.9-33.4C1778.4,210.9,1805,199.3,1834.9,188.6
					L1834.9,188.6z"/>
				<path class="st143" d="M1819.8,194.2l9,30.4c-27.1,11.7-51.7,24.3-71.7,36.8l-10-34C1767.1,216.2,1791.8,204.8,1819.8,194.2
					L1819.8,194.2z"/>
				<path class="st144" d="M1805.5,199.8l9.2,31.1c-25.3,11.6-47.9,23.8-66,36l-10.2-34.5C1756.8,221.5,1779.5,210.4,1805.5,199.8z"
					/>
				<path class="st145" d="M1791.9,205.5l9.3,31.7c-23.5,11.4-44.1,23.3-60.2,35.1l-10.3-35C1747.1,226.7,1767.8,215.9,1791.9,205.5
					z"/>
				<path class="st146" d="M1779,211.3l9.5,32.3c-21.6,11.2-40.3,22.7-54.5,34l-10.5-35.6C1738.1,231.9,1756.9,221.5,1779,211.3
					L1779,211.3z"/>
				<path class="st147" d="M1766.7,217.2l9.7,32.9c-19.8,10.9-36.5,22.1-48.8,33l-10.7-36.2C1729.6,237.2,1746.5,227.1,1766.7,217.2
					L1766.7,217.2z"/>
				<path class="st148" d="M1754.9,223.2l9.9,33.5c-17.9,10.7-32.7,21.4-43.1,31.9l-10.9-36.9
					C1721.8,242.5,1736.7,232.8,1754.9,223.2L1754.9,223.2z"/>
				<path class="st149" d="M1743.7,229.4l10.1,34.1c-16.1,10.4-28.9,20.8-37.4,30.8l-11.1-37.8
					C1714.4,247.9,1727.5,238.7,1743.7,229.4L1743.7,229.4z"/>
				<path class="st150" d="M1733,235.8l10.3,34.8c-14.3,10.2-25.2,20.3-31.6,30l-11.5-38.8C1707.5,253.6,1718.7,244.8,1733,235.8
					L1733,235.8z"/>
				<path class="st151" d="M1722.8,242.5l10.5,35.7c-12.7,10.2-21.6,20.3-25.6,29.8l-11.9-40.5
					C1701.1,259.7,1710.3,251.3,1722.8,242.5L1722.8,242.5z"/>
			</g>
			<path class="st152" d="M1713.1,249.8l10.8,36.7c-12.2,11.7-19,23-18.5,33.3l-13.4-45.4C1694.9,266.9,1702.2,258.6,1713.1,249.8z"
				/>
		</g>
		<g>
			<path class="st153" d="M1984.9,216.6l-7.5-22.9c84.2-15.7,148.3-12.7,154.8,10.3C2096.4,196.7,2042.1,202.9,1984.9,216.6z"/>
			<g>
				<path class="st154" d="M2084,184.2l5.4,16.8c-39.8,1.1-89,10.4-138.3,24.4l-8-24.6C1999.2,187.8,2049.4,182.1,2084,184.2
					L2084,184.2z"/>
				<path class="st155" d="M2047.2,184.5l6.3,19.3c-40.3,5-86.2,15.9-130.6,30.1l-8.4-25.9C1963.9,194.7,2010.1,186.9,2047.2,184.5z
					"/>
				<path class="st156" d="M2015.5,187.6l6.8,21c-39.8,7.2-82.9,19.1-123.6,33.4l-8.8-27c4.6-1.4,9.3-2.7,14-4.1
					C1944,199.6,1982.2,191.8,2015.5,187.6z"/>
				<path class="st157" d="M1987.6,191.8l7.3,22.4c-38.8,8.7-79.4,21.1-117,35.4l-9.1-28c11.4-3.7,23.2-7.3,35.3-10.7
					C1933.2,202.7,1961.5,196.3,1987.6,191.8z"/>
				<path class="st158" d="M1962.5,196.6l7.7,23.6c-37.6,9.7-75.9,22.5-110.7,36.7l-9.4-28.9c17.1-6,35.1-11.8,54-17.1
					C1924.1,205.2,1943.7,200.5,1962.5,196.6L1962.5,196.6z"/>
				<path class="st159" d="M1939.6,201.7l8.1,24.7c-36.2,10.4-72.3,23.4-104.5,37.4l-9.7-29.7c21.8-8.3,45.5-16.1,70.6-23.2
					C1916.1,207.5,1928,204.4,1939.6,201.7L1939.6,201.7z"/>
				<path class="st160" d="M1918.6,206.9l8.4,25.7c-34.7,10.9-68.7,23.9-98.5,37.7l-9.9-30.5c25.7-10.4,54.6-20.3,85.5-29
					C1908.9,209.5,1913.8,208.2,1918.6,206.9z"/>
				<path class="st161" d="M1899.1,212.3l8.7,26.6c-33.2,11.3-65,24.2-92.5,37.7l-10.1-31.1C1832.7,233.6,1864.6,222.2,1899.1,212.3
					L1899.1,212.3z"/>
				<path class="st162" d="M1881,217.7l8.9,27.5c-31.6,11.5-61.4,24.3-86.7,37.6l-10.4-31.8C1818.5,239.2,1848.4,227.8,1881,217.7
					L1881,217.7z"/>
				<path class="st163" d="M1864,223.2l9.2,28.3c-29.9,11.6-57.7,24.3-80.9,37.2l-10.6-32.4C1805.3,244.7,1833.2,233.4,1864,223.2
					L1864,223.2z"/>
				<path class="st164" d="M1848.1,228.7l9.4,29c-28.2,11.6-54,24.1-75.1,36.7l-10.8-33.1C1793.2,250.1,1819.2,239,1848.1,228.7z"/>
				<path class="st165" d="M1833,234.2l9.7,29.7c-26.5,11.6-50.3,23.8-69.4,36l-11-33.7C1782,255.4,1805.9,244.5,1833,234.2
					L1833,234.2z"/>
				<path class="st166" d="M1818.7,239.8l9.9,30.4c-24.8,11.5-46.7,23.5-63.7,35.3l-11.2-34.4C1771.5,260.7,1793.5,250,1818.7,239.8
					L1818.7,239.8z"/>
				<path class="st167" d="M1805.1,245.5l10.1,31.1c-23,11.3-43,23-58.1,34.5l-11.4-35.1C1761.7,265.9,1781.9,255.5,1805.1,245.5
					L1805.1,245.5z"/>
				<path class="st168" d="M1792.2,251.3l10.4,31.8c-21.3,11.2-39.3,22.6-52.4,33.6l-11.7-35.9
					C1752.6,271.1,1770.8,261.1,1792.2,251.3z"/>
				<path class="st169" d="M1779.9,257.1l10.6,32.5c-19.5,11-35.6,22.2-46.8,32.8l-12-36.9C1744.1,276.4,1760.4,266.7,1779.9,257.1z
					"/>
				<path class="st170" d="M1768.1,263.1l10.8,33.3c-17.8,10.9-32,21.8-41.1,32.1l-12.4-38C1736.1,281.7,1750.5,272.4,1768.1,263.1z
					"/>
				<path class="st171" d="M1756.8,269.3l11.1,34.1c-16.2,10.9-28.5,21.7-35.3,31.8l-12.9-39.6
					C1728.6,287.2,1741.2,278.3,1756.8,269.3z"/>
				<path class="st172" d="M1746.1,275.8l11.4,35.1c-15,11.3-25.3,22.3-29.1,32.5l-13.8-42.4C1721.6,293,1732.3,284.5,1746.1,275.8z
					"/>
				<path class="st173" d="M1735.9,282.6l11.8,36.2c-18.6,16.4-26.2,31.8-17.3,44.4c-1.2-1.5-2.4-3.1-3.5-4.6l-16.8-51.7
					C1715,299.3,1723.9,291.1,1735.9,282.6L1735.9,282.6z"/>
			</g>
			<path class="st174" d="M1726.2,289.9l12.3,37.9c-11.7,13-15.4,25.2-8.2,35.4c-5.6-7.1-10.8-14.6-15.5-22.5l-8.6-26.4
				C1708.7,306.9,1715.6,298.6,1726.2,289.9z"/>
		</g>
		<g>
			<path class="st175" d="M1991.7,259.7l-6.4-24.5c79.5-14.8,139.8-11.8,146,9.9c0.5,1.7,0.6,3.4,0.4,5.2
				C2097.1,241.5,2045.6,246.8,1991.7,259.7L1991.7,259.7z"/>
			<g>
				<path class="st176" d="M2085.5,226.4l5.2,19.5c-38.5,0.1-85.8,9-132.7,22.6l-6.9-26.2C2004.7,229.8,2052.6,224.4,2085.5,226.4
					L2085.5,226.4z"/>
				<path class="st177" d="M2049.9,226.8l5.6,21.4c-39,4.4-83.1,15.1-125.3,29.1l-7.3-27.7C1970.2,236.7,2014.4,229,2049.9,226.8z"
					/>
				<path class="st178" d="M2019.3,229.8l6,22.8c-38.6,6.9-80.1,18.7-118.7,32.9l-7.7-29.1c5.5-1.7,11-3.3,16.6-4.9
					C1952.7,241.1,1988.2,233.8,2019.3,229.8L2019.3,229.8z"/>
				<path class="st179" d="M1992.4,233.9l6.4,24.1c-37.7,8.6-76.9,21.1-112.5,35.3l-8-30.3c12-4,24.4-7.8,37.3-11.4
					C1942.4,244,1968.3,238.1,1992.4,233.9L1992.4,233.9z"/>
				<path class="st180" d="M1968.3,238.6l6.7,25.3c-36.6,9.7-73.6,22.6-106.5,36.8l-8.3-31.5c17.4-6.3,36-12.2,55.4-17.7
					C1933.6,246.5,1951.3,242.2,1968.3,238.6L1968.3,238.6z"/>
				<path class="st181" d="M1946.4,243.5l7,26.4c-35.4,10.5-70.2,23.7-100.6,37.8l-8.6-32.5c21.8-8.5,45.9-16.5,71.4-23.7
					C1926,248.6,1936.2,245.9,1946.4,243.5L1946.4,243.5z"/>
				<path class="st182" d="M1926.2,248.6l7.3,27.5c-34,11.1-66.8,24.4-94.9,38.3l-8.8-33.5c25.5-10.6,54.5-20.6,85.7-29.4
					C1919.1,250.6,1922.7,249.6,1926.2,248.6L1926.2,248.6z"/>
				<path class="st183" d="M1907.7,253.8l7.5,28.6c-32.6,11.6-63.4,24.9-89.2,38.5l-9.1-34.4
					C1843.2,274.9,1874.1,263.6,1907.7,253.8z"/>
				<path class="st184" d="M1890.3,259.1l7.8,29.6c-31.1,11.9-60,25.2-83.6,38.5l-9.3-35.4C1829.6,280.4,1858.5,269.1,1890.3,259.1
					L1890.3,259.1z"/>
				<path class="st185" d="M1874.1,264.4l8.1,30.6c-29.7,12.1-56.6,25.3-78,38.4l-9.6-36.3C1817,285.7,1844,274.6,1874.1,264.4
					L1874.1,264.4z"/>
				<path class="st186" d="M1858.9,269.7l8.3,31.5c-28.1,12.2-53.3,25.3-72.5,38.1l-9.8-37.3C1805.4,291,1830.6,280,1858.9,269.7z"
					/>
				<path class="st187" d="M1844.5,275.1l8.6,32.5c-26.7,12.3-49.9,25.3-66.9,37.8L1776,307C1794.6,296.3,1817.9,285.4,1844.5,275.1
					z"/>
				<path class="st188" d="M1830.8,280.6l8.8,33.4c-25.2,12.4-46.5,25.3-61.4,37.5l-10.4-39.6
					C1784.6,301.5,1806.1,290.8,1830.8,280.6z"/>
				<path class="st189" d="M1817.9,286.1l9.1,34.4c-23.8,12.6-43.3,25.4-55.8,37.3l-10.8-41C1775.3,306.6,1794.9,296.2,1817.9,286.1
					z"/>
				<path class="st190" d="M1805.5,291.7l9.3,35.4c-22.6,12.8-40.3,25.7-50.2,37.5l-11.3-42.9
					C1766.5,311.9,1784.3,301.7,1805.5,291.7L1805.5,291.7z"/>
				<path class="st191" d="M1793.8,297.4l9.6,36.4c-21.9,13.5-37.7,26.8-44.3,38.6l-12.1-45.8
					C1758.4,317.2,1774.3,307.3,1793.8,297.4L1793.8,297.4z"/>
				<path class="st192" d="M1782.5,303.3l9.9,37.6c-29.5,20.1-44.2,39.3-33,52.8c0,0,0,0,0,0c-0.8-0.7-1.7-1.5-2.5-2.2l-15.8-59.8
					C1750.6,322.7,1764.8,313,1782.5,303.3L1782.5,303.3z"/>
				<path class="st193" d="M1771.8,309.5l10.3,39c-22.4,17.3-32.4,33.4-22.6,45.3c0,0,0,0,0,0c-4-3.4-7.8-7-11.5-10.8l-12.1-45.7
					C1743.4,328.5,1755.7,319.1,1771.8,309.5L1771.8,309.5z"/>
				<path class="st194" d="M1761.6,315.9l10.7,40.7c-15.3,14.2-21,27.1-12.8,37.1c0,0,0,0,0,0c-7.2-6.3-13.9-13-20.3-20.1l-7.9-30
					C1736.4,335.1,1746.8,325.7,1761.6,315.9L1761.6,315.9z"/>
				<path class="st195" d="M1751.8,322.8l11.5,43.5c-8.2,10.4-10.1,19.8-3.8,27.4c0,0,0,0,0,0c-10.5-9.2-20.3-19.4-29-30.6l0,0
					l0-0.1l-2.7-10.2C1728.8,344.1,1737.3,333.7,1751.8,322.8z"/>
			</g>
			<path class="st196" d="M1742.6,330.4l13.4,50.6c-0.7,4.4,0.3,8.5,3.2,12.2l0.1,0.3c-10.5-9.1-20.1-19.3-28.8-30.4l0,0
				c-1.1-1.4-1.9-3-2.3-4.7C1725.8,350.5,1731.2,340.9,1742.6,330.4L1742.6,330.4z"/>
		</g>
		<g>
			<path class="st197" d="M2029.1,294.2l-4.7-22.1c54.5-6.7,93.1-2,97.8,14.4c0.6,2.2,0.7,4.5,0,7
				C2097.4,287.4,2064.5,288.5,2029.1,294.2z"/>
			<g>
				<path class="st198" d="M2100.9,272.3l3.9,18.2c-30-3.3-67.8,1-106.7,9.8l-5-23.4C2039.4,268.5,2078.2,266.9,2100.9,272.3z"/>
				<path class="st199" d="M2068.8,269.2l4.4,20.4c-30.9,1.2-66.3,7.7-101.4,17.4l-5.3-24.7C2006,273.5,2041.6,269.1,2068.8,269.2
					L2068.8,269.2z"/>
				<path class="st200" d="M2041.1,270.4l4.6,21.5c-30.9,3.8-64.4,11.7-96.7,21.9l-5.6-25.9C1979.3,278.6,2013,272.7,2041.1,270.4z"
					/>
				<path class="st201" d="M2016.6,273.1l4.8,22.4c-30.4,5.5-62.4,14.3-92.4,24.9l-5.8-27.1c1.3-0.4,2.5-0.7,3.8-1.1
					C1958.9,283.3,1989.5,276.9,2016.6,273.1z"/>
				<path class="st202" d="M1994.4,276.7l5,23.4c-29.8,6.7-60.2,16.1-88.3,27l-6.1-28.2c7.1-2.2,14.5-4.4,21.9-6.5
					C1950.5,285.7,1973.2,280.5,1994.4,276.7z"/>
				<path class="st203" d="M1974.1,280.6l5.2,24.3c-29,7.6-58.1,17.5-84.3,28.5l-6.3-29.3c12.2-4.2,25-8.1,38.2-11.8
					C1943.1,287.7,1959,283.8,1974.1,280.6z"/>
				<path class="st204" d="M1955.5,284.8l5.4,25.3c-28.2,8.3-55.9,18.6-80.3,29.7l-6.5-30.4c16.5-6,34.3-11.8,52.9-17
					C1936.6,289.6,1946.2,287.1,1955.5,284.8L1955.5,284.8z"/>
				<path class="st205" d="M1938.2,289.2l5.6,26.2c-27.4,8.9-53.7,19.5-76.5,30.6l-6.8-31.5c20.2-7.9,42.6-15.4,66.4-22.1
					C1930.7,291.2,1934.5,290.2,1938.2,289.2L1938.2,289.2z"/>
				<path class="st206" d="M1922.1,293.7l5.8,27.1c-26.5,9.4-51.5,20.2-72.6,31.3l-7-32.7C1870.2,310.2,1895.2,301.4,1922.1,293.7z"
					/>
				<path class="st207" d="M1906.9,298.2l6,28.1c-25.6,9.8-49.3,20.8-68.8,31.9l-7.3-33.9C1857.5,315.1,1881.2,306.2,1906.9,298.2
					L1906.9,298.2z"/>
				<path class="st208" d="M1892.7,302.8l6.2,29c-24.8,10.2-47.2,21.3-65,32.4l-7.5-35.1C1845.6,320,1868.1,311,1892.7,302.8
					L1892.7,302.8z"/>
				<path class="st209" d="M1879.2,307.5l6.4,30c-24,10.5-45.1,21.9-61.2,33l-7.8-36.6C1834.5,324.8,1855.7,315.8,1879.2,307.5
					L1879.2,307.5z"/>
				<path class="st210" d="M1866.4,312.2l6.7,31c-23.2,10.9-43.1,22.5-57.4,33.7l-8.2-38.2C1824.1,329.7,1844,320.7,1866.4,312.2
					L1866.4,312.2z"/>
				<path class="st211" d="M1854.3,316.9l6.9,32.1c-22.6,11.5-41.4,23.4-53.5,34.7l-8.6-40.3C1814.3,334.5,1833,325.5,1854.3,316.9
					L1854.3,316.9z"/>
				<path class="st212" d="M1842.7,321.8l7.1,33.2c-22.5,12.3-40,24.9-49.4,36.4l-9.2-43.1C1805,339.5,1822.5,330.5,1842.7,321.8
					L1842.7,321.8z"/>
				<path class="st213" d="M1831.6,326.7l7.4,34.5c-23.5,14-40,28.1-44.9,40.3l-10.4-48.3C1796.2,344.5,1812.5,335.5,1831.6,326.7
					L1831.6,326.7z M1798.4,421.1l-0.2-0.8c0.8,0.7,1.7,1.5,2.7,2.2c0,0,0,0,0,0C1800,422.1,1799.2,421.6,1798.4,421.1z"/>
				<path class="st214" d="M1821.1,331.7l7.7,35.9c-32,21.1-46.5,41.7-27.9,54.9c0,0,0,0,0,0c-4-2.1-7.8-4.4-11.7-6.7l-12.3-57.6
					C1787.9,349.6,1802.9,340.6,1821.1,331.7L1821.1,331.7z"/>
				<path class="st215" d="M1810.9,336.9l8.1,37.5c-25,18.6-34.7,36.3-18.1,48.1c0,0,0,0,0,0c-7-3.8-13.8-7.9-20.4-12.5l-10-46.5
					C1779.9,355.1,1793.7,346,1810.9,336.9L1810.9,336.9z"/>
				<path class="st216" d="M1801.2,342.2l8.5,39.7c-17.9,15.8-23.2,30.4-8.8,40.6c0,0,0,0,0,0c-10.1-5.4-19.8-11.6-28.9-18.6
					l-7.4-34.4C1772.1,361,1784.7,351.7,1801.2,342.2L1801.2,342.2z"/>
				<path class="st217" d="M1791.9,347.8l9.2,42.8c-10.5,12.4-11.9,23.6-0.2,32c0,0,0,0,0,0c-13.2-7.1-25.6-15.5-37.1-25.1
					l-4.4-20.6C1764.2,368,1775.6,358,1791.9,347.8z"/>
			</g>
			<path class="st218" d="M1783,353.7l10.6,49.3c-1.9,5.9-0.9,11.4,3.4,16.1l0.3,1.4c-13.5-7.6-26.2-16.6-38-26.8c0,0,0,0,0,0
				c-1.1-1.4-1.9-2.8-2.4-4.4C1754.3,379.6,1764.1,367,1783,353.7L1783,353.7z"/>
		</g>
		<g>
			<path class="st219" d="M2083.3,333.9V316c11.4,2.3,18.7,6.5,20.3,12.5c0.8,2.8,0.3,5.9-1.2,9.1
				C2096.4,335.9,2090,334.7,2083.3,333.9z"/>
			<g>
				<path class="st219" d="M2096.8,320.7v15.5c-8.6-1.9-17.7-3.1-27.2-3.5v-18.5C2081.6,315.1,2090.9,317.2,2096.8,320.7z"/>
				<path class="st219" d="M2083.1,316v17.9c-8.7-1.1-17.8-1.4-27.2-1.2v-18.9C2066.5,313.7,2075.7,314.5,2083.1,316z"/>
				<path class="st219" d="M2069.4,314.2v18.5c-8.8-0.3-17.9-0.1-27.2,0.7v-19.2C2052.3,313.6,2061.4,313.6,2069.4,314.2z"/>
				<path class="st219" d="M2055.7,313.8v18.9c-8.9,0.3-18,1-27.2,2.3v-19.7C2038.3,314.3,2047.4,313.8,2055.7,313.8L2055.7,313.8z"
					/>
				<path class="st219" d="M2042,314.2v19.2c-8.9,0.8-18,2-27.2,3.7v-20.2C2024.4,315.6,2033.5,314.7,2042,314.2z"/>
				<path class="st219" d="M2028.3,315.3V335c-9,1.2-18.1,2.9-27.2,4.9v-21C2010.6,317.4,2019.7,316.2,2028.3,315.3L2028.3,315.3z"
					/>
				<path class="st219" d="M2014.6,316.9v20.2c-9.1,1.7-18.2,3.7-27.2,6.1v-21.9C1996.8,319.6,2005.9,318.1,2014.6,316.9z"/>
				<path class="st219" d="M2000.9,319v21c-9.1,2-18.2,4.5-27.2,7.2v-22.9C1983,322.2,1992.1,320.4,2000.9,319z"/>
				<path class="st219" d="M1987.2,321.4v21.9c-9.2,2.4-18.3,5.2-27.2,8.2v-24.2C1969.3,325.1,1978.4,323.1,1987.2,321.4
					L1987.2,321.4z"/>
				<path class="st219" d="M1973.5,324.3v22.9c-9.2,2.8-18.4,5.9-27.2,9.2v-25.6C1955.5,328.4,1964.6,326.2,1973.5,324.3z"/>
				<path class="st219" d="M1959.8,327.4v24.2c-9.3,3.2-18.4,6.6-27.2,10.2v-27.1c1.9-0.6,3.9-1.1,5.8-1.7
					C1945.6,331,1952.7,329.1,1959.8,327.4L1959.8,327.4z"/>
				<path class="st219" d="M1946.1,330.9v25.6c-9.4,3.5-18.5,7.3-27.2,11.3v-28.9c6.4-2,12.9-4,19.6-5.8
					C1941,332.3,1943.5,331.6,1946.1,330.9L1946.1,330.9z"/>
				<path class="st219" d="M1932.4,334.8v27.1c-9.5,4-18.7,8.1-27.2,12.5v-31C1913.9,340.4,1923,337.5,1932.4,334.8z"/>
				<path class="st219" d="M1918.7,339v29c-9.7,4.4-18.8,9.1-27.2,13.8v-33.3C1900.1,345.1,1909.2,342,1918.7,339L1918.7,339z"/>
				<path class="st219" d="M1905,343.5v31c-9.9,5-19.1,10.2-27.2,15.4v-36.2C1886.3,350.2,1895.4,346.8,1905,343.5z"/>
				<path class="st219" d="M1891.3,348.4v33.4c-10.4,5.8-19.6,11.8-27.2,17.6v-39.9C1872.5,355.7,1881.6,352,1891.3,348.4z"/>
				<path class="st219" d="M1877.5,353.8V390c-11.4,7.3-20.7,14.6-27.2,21.4v-45.5C1858.7,361.8,1867.8,357.7,1877.5,353.8z
					 M1850.3,442.1v-0.4c1.4,0.6,3,1.1,4.7,1.6C1853.5,442.9,1851.9,442.5,1850.3,442.1L1850.3,442.1z"/>
				<path class="st219" d="M1863.8,359.6v39.9c-25.4,19.4-33.3,37.1-8.8,43.7c-6.2-1.5-12.4-3.3-18.4-5.3v-65
					C1844.8,368.5,1853.9,364,1863.8,359.6z"/>
				<path class="st219" d="M1850.1,366v45.6c-12.3,13-14.1,24.1,0,30v0.4c-9.3-2.5-18.4-5.5-27.2-9.1v-51.7
					C1830.7,376.2,1839.8,371,1850.1,366z"/>
				<path class="st219" d="M1836.4,373.1v64.8c-9.3-3.1-18.4-6.8-27.2-11.1v-35.6C1816.1,385.4,1825.4,379.3,1836.4,373.1z"/>
			</g>
			<path class="st219" d="M1822.7,381.3v51.5c-7.5-3-14.8-6.5-21.8-10.3c-2.6-1.7-4.4-3.7-5.4-5.9v-8.4
				C1798.2,400.3,1807.9,391,1822.7,381.3z"/>
		</g>
		<g>
			<path class="st220" d="M2258.7,187.7V69.9c20.7,4.9,38.7,12.7,47.6,25.2c17.1,24-8.1,54.6-24.9,71.7
				C2274.4,174,2266.7,181,2258.7,187.7z"/>
			<g>
				<path class="st221" d="M2288.5,80.5v78.7c-2.4,2.7-4.9,5.3-7.1,7.6c-15.5,15.8-34,30.7-52.9,44.3V64.9
					C2250.4,67.3,2272.5,72,2288.5,80.5z"/>
				<path class="st222" d="M2258.3,69.8v118.3c-19,15.9-40,30.6-60,43.8v-52c0.1-2.1,0.1-4.2,0-6.2V62.7
					C2217.3,63.4,2239,65.3,2258.3,69.8z"/>
				<path class="st223" d="M2228,64.8v146.6c-10.5,7.6-21.2,14.8-31.6,21.6c-6.4,4.2-18.2,12.7-24.9,13.3c-1.3,0.1-2.5,0-3.6-0.2
					V237c1.2-1.3,2.4-2.6,3.6-3.9c10.6-12.1,20.8-26.9,24.9-42.6c6.8-25.8-5.3-44.3-27.1-55.8c-0.4-0.2-0.9-0.5-1.3-0.7V62.4
					C2183.4,62.1,2205.6,62.3,2228,64.8L2228,64.8z"/>
				<path class="st224" d="M2197.8,62.7v107.1c-2.4-15.3-13-26.9-28.5-35c-1.3-0.7-2.6-1.3-4-2c-8.4-3.9-17.6-6.8-27.6-9v-60
					c9.4-0.6,18.6-1,27.6-1.2C2174,62.3,2185.3,62.2,2197.8,62.7z M2197.8,183.9v48.2l-1.3,0.9c-6.4,4.2-18.2,12.7-24.9,13.3
					c-3.7,0.4-6.6-1-9-3.7c3.1-3.1,6.1-6.3,9-9.5c10.6-12.1,20.8-26.9,24.9-42.6C2197.1,188.2,2197.5,186,2197.8,183.9z"/>
				<path class="st225" d="M2167.6,62.4v71.4c-0.7-0.4-1.5-0.7-2.2-1.1c-16.4-7.6-36.3-11.7-57.8-13.3V66.2
					c19.8-2.1,39.2-3.4,57.8-3.8C2165.3,62.5,2167.6,62.4,2167.6,62.4z M2167.6,237.5v8.5c-1.9-0.6-3.5-1.7-5-3.4
					C2164.3,240.9,2165.9,239.2,2167.6,237.5z"/>
				<path class="st226" d="M2137.3,63.7v59.9c-18.3-4-38.8-5.4-60-5V69.9C2097.7,67.1,2117.8,65,2137.3,63.7z"/>
				<path class="st227" d="M2107.1,66.3v53.1c-19.1-1.4-39.5-0.9-60,0.8V74.6C2067.2,71.2,2087.4,68.4,2107.1,66.3z"/>
				<path class="st228" d="M2076.9,70v48.6c-19.7,0.4-40.1,2.3-60,5V80.2C2036.8,76.2,2056.9,72.7,2076.9,70z"/>
				<path class="st229" d="M2046.6,74.7v45.6c-20.3,1.8-40.8,4.8-60,8.3V86.7C2006.3,82.1,2026.5,78.1,2046.6,74.7z"/>
				<path class="st230" d="M2016.4,80.3v43.5c-21.1,3-41.5,6.9-60,11.1V94.1C1975.9,89,1996,84.3,2016.4,80.3z"/>
				<path class="st231" d="M1986.1,86.8v41.9c-22.1,4.1-42.8,9-60,13.6v-39.8C1945.4,96.8,1965.6,91.5,1986.1,86.8z"/>
				<path class="st232" d="M1955.9,94.2v40.7c-24.6,5.6-45.7,11.6-60,16.3v-39.3C1914.8,105.6,1935,99.7,1955.9,94.2z"/>
				<path class="st233" d="M1925.7,102.6v39.8c-11.9,3.2-22.2,6.3-30.2,8.9c-2.1,0.7-4.2,1.4-6.2,2.1c-7.1,2.4-15,5.2-23.6,8.5
					v-39.2c5.9-2.3,11.7-4.4,17.3-6.4c0.7-0.3,1.5-0.5,2.2-0.8c1.3-0.5,2.7-0.9,4-1.4C1900.9,110.2,1913.1,106.3,1925.7,102.6
					L1925.7,102.6z"/>
				<path class="st234" d="M1895.4,112.1v39.3c-2.1,0.7-4.2,1.4-6.2,2.1c-15,5.1-33.6,12.1-53.8,20.7v-39.1
					c16.5-7.2,32.6-13.5,47.6-18.7c0.7-0.3,1.5-0.5,2.2-0.8c1.3-0.5,2.7-0.9,4-1.4C1891.3,113.5,1893.3,112.8,1895.4,112.1z"/>
				<path class="st235" d="M1865.2,122.9v39.2c-18.1,6.9-38.8,15.5-60,25.7V149C1825.7,139,1846.1,130.2,1865.2,122.9z"/>
				<path class="st236" d="M1835,135.2v39.1c-19.2,8.2-39.9,17.9-60,28.8v-38.4C1794.9,153.7,1815.3,143.8,1835,135.2L1835,135.2z"
					/>
				<path class="st237" d="M1804.7,149.3V188c-20.2,9.7-40.8,20.7-60,32.7v-38C1764.2,170.4,1784.5,159.2,1804.7,149.3z"/>
				<path class="st238" d="M1774.5,165v38.4c-21.2,11.5-42,24.4-60,38.3v-38.3C1733.3,189.4,1753.7,176.6,1774.5,165z M1714.5,371.5
					v-10.7c0.9,0.2,1.8,0.4,2.7,0.7c7.9,2,11.3,8.8,0,9.8C1716.2,371.4,1715.4,371.4,1714.5,371.5z"/>
				<path class="st239" d="M1744.3,183v38c-23.1,14.6-44.2,30.7-60,47.9v-40.8C1702.2,211.8,1722.7,196.7,1744.3,183z M1684.2,368.7
					V353c10.7,3.7,22.8,6,32.9,8.5c7.9,2,11.3,8.8,0,9.8C1706.9,372.2,1695.4,371.3,1684.2,368.7z"/>
				<path class="st240" d="M1714,203.7V242c-24.3,18.8-43.7,39.4-52.9,61.2c-18.8,44.6,23.7,50.5,52.9,57.5v10.8
					c-19.5,1-42.6-4.2-60-14.9v-96.7C1670.3,239.6,1691,220.8,1714,203.7L1714,203.7z"/>
			</g>
			<path class="st241" d="M1683.8,228.5v40.9c-9.9,10.9-17.8,22.2-22.7,33.8c-12.7,30.1,2.5,42.5,22.7,49.6v15.8
				c-38.3-9.1-73.4-38.1-47.6-83C1647.9,265.3,1664.4,246.2,1683.8,228.5L1683.8,228.5z"/>
		</g>
	</g>
</g>
</svg>
