<svg display="none" xmlns="http://www.w3.org/2000/svg">
    <symbol id="icon-svg-date" viewBox="0 0 11 10">
      <path d="M10.3636 1.27273H8.36364V0H7.63636V1.27273H3.27273V0H2.54545V1.27273H0.545455C0.400843 1.2729 0.262202 1.33042 0.159946 1.43267C0.0576899 1.53493 0.000168419 1.67357 0 1.81818V9.45455C0.000168419 9.59916 0.0576899 9.7378 0.159946 9.84005C0.262202 9.94231 0.400843 9.99983 0.545455 10H10.3636C10.5082 9.99983 10.6469 9.94231 10.7491 9.84005C10.8514 9.7378 10.9089 9.59916 10.9091 9.45455V1.81818C10.9089 1.67357 10.8514 1.53493 10.7491 1.43267C10.6469 1.33042 10.5082 1.2729 10.3636 1.27273ZM10.1818 9.27273H0.727273V2H2.54545V2.90909H3.27273V2H7.63636V2.90909H8.36364V2H10.1818V9.27273Z" />
      <path d="M2.18182 4.18182H2.9091V4.9091H2.18182V4.18182Z" />
      <path d="M4.18182 4.18182H4.9091V4.9091H4.18182V4.18182Z" />
      <path d="M6 4.18182H6.72727V4.9091H6V4.18182Z" />
      <path d="M8 4.18182H8.72727V4.9091H8V4.18182Z" />
      <path d="M2.18182 5.81818H2.9091V6.54545H2.18182V5.81818Z" />
      <path d="M4.18182 5.81818H4.9091V6.54545H4.18182V5.81818Z" />
      <path d="M6 5.81818H6.72727V6.54545H6V5.81818Z" />
      <path d="M8 5.81818H8.72727V6.54545H8V5.81818Z" />
      <path d="M2.18182 7.45454H2.9091V8.18182H2.18182V7.45454Z" />
      <path d="M4.18182 7.45454H4.9091V8.18182H4.18182V7.45454Z" />
      <path d="M6 7.45454H6.72727V8.18182H6V7.45454Z" />
      <path d="M8 7.45454H8.72727V8.18182H8V7.45454Z" />
    </symbol>
    <symbol id="icon-svg-arrow" viewBox="0 0 8 13">
      <path d="M3.64645 12.3536C3.84171 12.5488 4.15829 12.5488 4.35355 12.3536L7.53553 9.17157C7.7308 8.97631 7.7308 8.65973 7.53553 8.46447C7.34027 8.2692 7.02369 8.2692 6.82843 8.46447L4 11.2929L1.17157 8.46447C0.976311 8.2692 0.659729 8.2692 0.464467 8.46447C0.269204 8.65973 0.269204 8.97631 0.464467 9.17157L3.64645 12.3536ZM3.5 2.91409e-08L3.5 12L4.5 12L4.5 -2.91409e-08L3.5 2.91409e-08Z"/>
    </symbol>
    <symbol id="icon-svg-search" viewBox="0 0 16 16" xmlns="http://www.w3.org/2000/svg">
      <path d="M6.56939 13C2.93096 13 0 10.1 0 6.5C0 2.9 2.93096 0 6.56939 0C10.2078 0 13.1388 2.9 13.1388 6.5C13.1388 10.1 10.2078 13 6.56939 13ZM6.56939 1C3.48683 1 1.01068 3.45 1.01068 6.5C1.01068 9.55 3.48683 12 6.56939 12C9.65195 12 12.1281 9.55 12.1281 6.5C12.1281 3.45 9.65195 1 6.56939 1Z" fill="#081F2C"/>
      <path d="M11.4621 10.6335L16 15.1235L15.2855 15.8305L10.7475 11.3405L11.4621 10.6335Z" fill="#081F2C"/>
    </symbol>
    <symbol id="icon-svg-clip" fill="none" viewBox="0 0 24 24">
      <path d="M1 1H23V23H1V1Z" stroke-width="2"/>
      <path d="M17.25 11.6256L11.9313 16.9763C11.2797 17.6317 10.3959 18 9.47445 18C8.55297 18 7.66923 17.6317 7.01764 16.9763C6.36606 16.3208 6 15.4317 6 14.5047C6 13.5777 6.36606 12.6886 7.01764 12.0332L12.3364 6.6825C12.7708 6.2455 13.3599 6 13.9743 6C14.5886 6 15.1777 6.2455 15.6121 6.6825C16.0465 7.1195 16.2906 7.71219 16.2906 8.3302C16.2906 8.94821 16.0465 9.5409 15.6121 9.9779L10.2876 15.3286C10.0704 15.5471 9.77582 15.6698 9.46866 15.6698C9.1615 15.6698 8.86692 15.5471 8.64973 15.3286C8.43253 15.1101 8.31051 14.8137 8.31051 14.5047C8.31051 14.1957 8.43253 13.8994 8.64973 13.6809L13.5633 8.74358" stroke-width="1.2" stroke-linecap="round" stroke-linejoin="round"/>
    </symbol>
    <symbol id="icon-svg-camera" viewBox="0 0 420.8 420.8">
      <g>
        <path d="M406.8,96.4c-8.4-8.8-20-14-33.2-14h-66.4v-0.8c0-10-4-19.6-10.8-26c-6.8-6.8-16-10.8-26-10.8h-120
          c-10.4,0-19.6,4-26.4,10.8c-6.8,6.8-10.8,16-10.8,26v0.8h-66c-13.2,0-24.8,5.2-33.2,14c-8.4,8.4-14,20.4-14,33.2v199.2
          C0,342,5.2,353.6,14,362c8.4,8.4,20.4,14,33.2,14h326.4c13.2,0,24.8-5.2,33.2-14c8.4-8.4,14-20.4,14-33.2V129.6
          C420.8,116.4,415.6,104.8,406.8,96.4z M400,328.8h-0.4c0,7.2-2.8,13.6-7.6,18.4s-11.2,7.6-18.4,7.6H47.2
          c-7.2,0-13.6-2.8-18.4-7.6c-4.8-4.8-7.6-11.2-7.6-18.4V129.6c0-7.2,2.8-13.6,7.6-18.4s11.2-7.6,18.4-7.6h77.2
          c6,0,10.8-4.8,10.8-10.8V81.2c0-4.4,1.6-8.4,4.4-11.2s6.8-4.4,11.2-4.4h119.6c4.4,0,8.4,1.6,11.2,4.4c2.8,2.8,4.4,6.8,4.4,11.2
          v11.6c0,6,4.8,10.8,10.8,10.8H374c7.2,0,13.6,2.8,18.4,7.6s7.6,11.2,7.6,18.4V328.8z"/>
        <path d="M210.4,130.8c-27.2,0-52,11.2-69.6,28.8c-18,18-28.8,42.4-28.8,69.6s11.2,52,28.8,69.6c18,18,42.4,28.8,69.6,28.8
          s52-11.2,69.6-28.8c18-18,28.8-42.4,28.8-69.6s-11.2-52-28.8-69.6C262.4,142,237.6,130.8,210.4,130.8z M264.8,284
          c-14,13.6-33.2,22.4-54.4,22.4S170,297.6,156,284c-14-14-22.4-33.2-22.4-54.4c0-21.2,8.8-40.4,22.4-54.4
          c14-14,33.2-22.4,54.4-22.4s40.4,8.8,54.4,22.4c14,14,22.4,33.2,22.4,54.4C287.6,250.8,278.8,270,264.8,284z"/>
        <circle cx="352.8" cy="150" r="19.6"/>
      </g>
    </symbol>
</svg>
